<mxfile host="app.diagrams.net" agent="Mozilla/5.0 (Macintosh; Intel Mac OS X 10_15_7) AppleWebKit/605.1.15 (KHTML, like Gecko) Version/18.0.1 Safari/605.1.15" version="24.8.3">
  <diagram name="Page-1" id="U5gOBO9FgZ9HfYY-3pQ9">
    <mxGraphModel dx="1001" dy="744" grid="1" gridSize="10" guides="1" tooltips="1" connect="1" arrows="1" fold="1" page="1" pageScale="1" pageWidth="850" pageHeight="1100" math="0" shadow="0">
      <root>
        <mxCell id="0" />
        <mxCell id="1" parent="0" />
        <mxCell id="IlfbLXd4Qjn4QDNZ3G44-31" value="" style="rounded=1;whiteSpace=wrap;html=1;labelBackgroundColor=default;" vertex="1" parent="1">
          <mxGeometry x="162.5" y="2160" width="495" height="100" as="geometry" />
        </mxCell>
        <mxCell id="IlfbLXd4Qjn4QDNZ3G44-3" value="&lt;h1 style=&quot;margin-top: 0px; line-height: 60%;&quot;&gt;1. Clarifying Questions:&amp;nbsp;&lt;/h1&gt;&lt;h1 style=&quot;margin-top: 0px; line-height: 60%;&quot;&gt;&lt;ul style=&quot;line-height: 60%;&quot;&gt;&lt;li&gt;&lt;span style=&quot;font-size: 12px; font-weight: normal;&quot;&gt;Are we detecting only harmful content - meaning posts that contain&amp;nbsp;&lt;/span&gt;&lt;span style=&quot;font-size: 12px; font-weight: 400;&quot;&gt;violence, nudity, etc. - or bad actors - such as fake accounts, spam, phishing, etc. ?&lt;/span&gt;&lt;br&gt;&lt;/li&gt;&lt;li&gt;&lt;span style=&quot;font-size: 12px; font-weight: 400;&quot;&gt;Does the POST contains only text? or we have a combination of text, photos, videos?&amp;nbsp;&lt;/span&gt;&lt;/li&gt;&lt;li&gt;&lt;span style=&quot;font-size: 12px; font-weight: 400;&quot;&gt;What language do we support? English or various languages? &amp;nbsp;--&amp;gt; I can use a pre-trained multilingual model for textual content&lt;/span&gt;&lt;/li&gt;&lt;li&gt;&lt;span style=&quot;font-size: 12px; font-weight: 400;&quot;&gt;What are the harmful content we hare trying to detect? Violence, nudity, hate speech, abuse, misinformation (This is very complex and controversial)&lt;/span&gt;&lt;/li&gt;&lt;li&gt;&lt;span style=&quot;font-size: 12px; font-weight: 400;&quot;&gt;Do we have human annotators for manual labeling? at least for limited number of posts per day (I can use this for my validation set, where I need accurate labels)&lt;/span&gt;&lt;/li&gt;&lt;li&gt;&lt;span style=&quot;font-size: 12px; font-weight: 400;&quot;&gt;Do we allow user feedback? aka user reporting posts with harmful content? (crowdsource labeling)&lt;/span&gt;&lt;/li&gt;&lt;li&gt;&lt;span style=&quot;font-size: 12px; font-weight: 400;&quot;&gt;When we mark a post as harmful, should we provide explanation to the user of why the post was tagged as harmful?&amp;nbsp;&lt;/span&gt;&lt;/li&gt;&lt;li&gt;&lt;span style=&quot;font-size: 12px; font-weight: 400;&quot;&gt;reactive vs proactive: Do we identify the harmful content and immediately remove/block it? or we take action based on severity? e.g. remove some categories of harmful content and demote the less severe ones&lt;/span&gt;&lt;/li&gt;&lt;li&gt;&lt;span style=&quot;font-size: 12px; font-weight: 400;&quot;&gt;What is the latency requirement? do we need real-time predictions? or can we do batch predictions and detect the harmful content offline hourly or daily? In my opinion, some harmful content, e.g. violence needs immediate action, while other less severe ones can get away with late detection, for example posts that are not harmful in nature, but not following certain guidelines&lt;/span&gt;&lt;/li&gt;&lt;/ul&gt;&lt;div style=&quot;line-height: 60%;&quot;&gt;2. Problem statement:&lt;/div&gt;&lt;div style=&quot;line-height: 60%;&quot;&gt;&lt;span style=&quot;font-size: 12px; font-weight: 400;&quot;&gt;We want to design:&lt;/span&gt;&lt;/div&gt;&lt;div style=&quot;line-height: 60%;&quot;&gt;&lt;ul style=&quot;line-height: 60%;&quot;&gt;&lt;li&gt;&lt;span style=&quot;font-size: 12px; font-weight: 400;&quot;&gt;A harmful content detection system to identify harmful posts,&amp;nbsp;&lt;/span&gt;&lt;/li&gt;&lt;li&gt;&lt;span style=&quot;font-size: 12px; font-weight: 400;&quot;&gt;Block or demote them based on some guidelines,&amp;nbsp;&lt;/span&gt;&lt;/li&gt;&lt;li&gt;&lt;span style=&quot;font-size: 12px; font-weight: 400;&quot;&gt;Inform the user why the post was identified as harmful&lt;/span&gt;&lt;br&gt;&lt;/li&gt;&lt;li&gt;&lt;span style=&quot;font-size: 12px; font-weight: 400;&quot;&gt;The post content can be text, image, video, or combination of those&lt;/span&gt;&lt;/li&gt;&lt;li&gt;&lt;span style=&quot;font-size: 12px; font-weight: 400;&quot;&gt;Content can be in any language&lt;/span&gt;&lt;/li&gt;&lt;li&gt;&lt;span style=&quot;font-size: 12px; font-weight: 400;&quot;&gt;User can report harmful content&lt;/span&gt;&lt;/li&gt;&lt;/ul&gt;&lt;div style=&quot;line-height: 60%;&quot;&gt;&lt;span style=&quot;font-size: 12px;&quot;&gt;ML Objective:&amp;nbsp;&lt;/span&gt;&lt;/div&gt;&lt;/div&gt;&lt;div style=&quot;line-height: 60%;&quot;&gt;&lt;span style=&quot;font-size: 12px; font-weight: 400;&quot;&gt;Accurately predicting harmful content --&amp;gt; If we detect the harmful content accurately, we can block/demote them, leading to a safer platform&lt;/span&gt;&lt;/div&gt;&lt;div style=&quot;line-height: 60%;&quot;&gt;&lt;span style=&quot;font-size: 12px; font-weight: 400;&quot;&gt;&lt;br&gt;&lt;/span&gt;&lt;/div&gt;&lt;div style=&quot;line-height: 60%;&quot;&gt;&lt;span style=&quot;font-size: 12px; font-weight: 400;&quot;&gt;&lt;br&gt;&lt;/span&gt;&lt;/div&gt;&lt;div style=&quot;line-height: 60%;&quot;&gt;&lt;span style=&quot;font-size: 12px; font-weight: 400;&quot;&gt;&lt;br&gt;&lt;/span&gt;&lt;/div&gt;&lt;div style=&quot;line-height: 60%;&quot;&gt;&lt;span style=&quot;font-size: 12px; font-weight: 400;&quot;&gt;&lt;br&gt;&lt;/span&gt;&lt;/div&gt;&lt;div style=&quot;line-height: 60%;&quot;&gt;&lt;span style=&quot;font-size: 12px; font-weight: 400;&quot;&gt;&lt;br&gt;&lt;/span&gt;&lt;/div&gt;&lt;div style=&quot;line-height: 60%;&quot;&gt;&lt;span style=&quot;font-size: 12px; font-weight: 400;&quot;&gt;&lt;br&gt;&lt;/span&gt;&lt;/div&gt;&lt;div style=&quot;line-height: 60%;&quot;&gt;&lt;span style=&quot;font-size: 12px; font-weight: 400;&quot;&gt;&lt;br&gt;&lt;/span&gt;&lt;/div&gt;&lt;div style=&quot;line-height: 60%;&quot;&gt;&lt;span style=&quot;font-size: 12px; font-weight: 400;&quot;&gt;&lt;br&gt;&lt;/span&gt;&lt;/div&gt;&lt;div style=&quot;line-height: 60%;&quot;&gt;&lt;span style=&quot;font-size: 12px; font-weight: 400;&quot;&gt;&lt;br&gt;&lt;/span&gt;&lt;/div&gt;&lt;div style=&quot;line-height: 60%;&quot;&gt;&lt;span style=&quot;font-size: 12px; font-weight: 400;&quot;&gt;&lt;br&gt;&lt;/span&gt;&lt;/div&gt;&lt;div style=&quot;line-height: 60%;&quot;&gt;&lt;br&gt;&lt;/div&gt;&lt;div style=&quot;line-height: 60%;&quot;&gt;&lt;div style=&quot;line-height: 60%;&quot;&gt;&lt;span style=&quot;font-size: 12px; font-weight: 400;&quot;&gt;&lt;br&gt;&lt;/span&gt;&lt;/div&gt;&lt;/div&gt;&lt;div style=&quot;line-height: 60%;&quot;&gt;&lt;span style=&quot;font-size: 12px; font-weight: 400;&quot;&gt;&lt;br&gt;&lt;/span&gt;&lt;/div&gt;&lt;/h1&gt;" style="text;html=1;whiteSpace=wrap;overflow=hidden;rounded=0;" vertex="1" parent="1">
          <mxGeometry x="40" y="40" width="760" height="590" as="geometry" />
        </mxCell>
        <mxCell id="IlfbLXd4Qjn4QDNZ3G44-13" value="" style="group" vertex="1" connectable="0" parent="1">
          <mxGeometry x="350" y="620" width="335" height="250" as="geometry" />
        </mxCell>
        <mxCell id="IlfbLXd4Qjn4QDNZ3G44-8" style="edgeStyle=orthogonalEdgeStyle;rounded=0;orthogonalLoop=1;jettySize=auto;html=1;exitX=0.5;exitY=1;exitDx=0;exitDy=0;entryX=0.5;entryY=0;entryDx=0;entryDy=0;" edge="1" parent="IlfbLXd4Qjn4QDNZ3G44-13" source="IlfbLXd4Qjn4QDNZ3G44-6" target="IlfbLXd4Qjn4QDNZ3G44-7">
          <mxGeometry relative="1" as="geometry" />
        </mxCell>
        <mxCell id="IlfbLXd4Qjn4QDNZ3G44-6" value="Post&amp;nbsp;&lt;div&gt;Text/ image/ Video&lt;/div&gt;" style="rounded=0;whiteSpace=wrap;html=1;" vertex="1" parent="IlfbLXd4Qjn4QDNZ3G44-13">
          <mxGeometry width="120" height="60" as="geometry" />
        </mxCell>
        <mxCell id="IlfbLXd4Qjn4QDNZ3G44-10" style="edgeStyle=orthogonalEdgeStyle;rounded=0;orthogonalLoop=1;jettySize=auto;html=1;exitX=0.5;exitY=1;exitDx=0;exitDy=0;entryX=0.5;entryY=0;entryDx=0;entryDy=0;" edge="1" parent="IlfbLXd4Qjn4QDNZ3G44-13" source="IlfbLXd4Qjn4QDNZ3G44-7" target="IlfbLXd4Qjn4QDNZ3G44-9">
          <mxGeometry relative="1" as="geometry" />
        </mxCell>
        <mxCell id="IlfbLXd4Qjn4QDNZ3G44-7" value="Harmful content detection system" style="rounded=0;whiteSpace=wrap;html=1;" vertex="1" parent="IlfbLXd4Qjn4QDNZ3G44-13">
          <mxGeometry y="110" width="120" height="60" as="geometry" />
        </mxCell>
        <mxCell id="IlfbLXd4Qjn4QDNZ3G44-9" value="p_h" style="rounded=0;whiteSpace=wrap;html=1;" vertex="1" parent="IlfbLXd4Qjn4QDNZ3G44-13">
          <mxGeometry x="38" y="210" width="45" height="40" as="geometry" />
        </mxCell>
        <mxCell id="IlfbLXd4Qjn4QDNZ3G44-11" value="Probability of the content being harmful&amp;nbsp;" style="text;html=1;align=left;verticalAlign=middle;whiteSpace=wrap;rounded=0;" vertex="1" parent="IlfbLXd4Qjn4QDNZ3G44-13">
          <mxGeometry x="105" y="215" width="230" height="30" as="geometry" />
        </mxCell>
        <mxCell id="IlfbLXd4Qjn4QDNZ3G44-14" value="&lt;h4&gt;&lt;font style=&quot;font-size: 24px;&quot;&gt;3. ML Design&lt;/font&gt;&lt;/h4&gt;&lt;p style=&quot;line-height: 110%;&quot;&gt;&lt;b&gt;Content&lt;/b&gt;&lt;/p&gt;&lt;div style=&quot;line-height: 60%;&quot;&gt;To make&amp;nbsp;precise prediction, the system should consider all modalities for the content:&amp;nbsp;&lt;/div&gt;&lt;h1 style=&quot;margin-top: 0px; line-height: 60%;&quot;&gt;&lt;div style=&quot;line-height: 60%;&quot;&gt;&lt;ul style=&quot;line-height: 60%;&quot;&gt;&lt;li style=&quot;text-align: left;&quot;&gt;&lt;span style=&quot;font-size: 12px; font-weight: normal;&quot;&gt;Text - Image - Video - Author info&lt;/span&gt;&lt;/li&gt;&lt;/ul&gt;&lt;div style=&quot;text-align: left; line-height: 60%;&quot;&gt;&lt;span style=&quot;font-size: 12px; font-weight: normal;&quot;&gt;to combine these different data we can use early fusion and late fusion:&amp;nbsp;&lt;/span&gt;&lt;/div&gt;&lt;div style=&quot;text-align: left; line-height: 60%;&quot;&gt;&lt;span style=&quot;font-size: 12px; font-weight: normal;&quot;&gt;&lt;u&gt;Late fusion:&amp;nbsp;&lt;/u&gt;&lt;/span&gt;&lt;/div&gt;&lt;div style=&quot;text-align: left; line-height: 60%;&quot;&gt;&lt;span style=&quot;font-size: 12px; font-weight: normal;&quot;&gt;Process each modality independently and combine the predictions at the end to make a prediction&lt;/span&gt;&lt;/div&gt;&lt;div style=&quot;text-align: left; line-height: 60%;&quot;&gt;&lt;span style=&quot;font-size: 12px; font-weight: normal;&quot;&gt;Pros:&lt;/span&gt;&lt;/div&gt;&lt;div style=&quot;line-height: 60%;&quot;&gt;&lt;span style=&quot;font-size: 12px; font-weight: 400;&quot;&gt;- Model for each modality can be trained, evaluated and improved&amp;nbsp;separately&lt;/span&gt;&lt;/div&gt;&lt;div style=&quot;line-height: 60%;&quot;&gt;&lt;span style=&quot;font-size: 12px; font-weight: 400;&quot;&gt;Cons:&lt;/span&gt;&lt;/div&gt;&lt;div style=&quot;line-height: 60%;&quot;&gt;&lt;span style=&quot;font-size: 12px; font-weight: 400;&quot;&gt;- We need separate training data for each model --&amp;gt; Time consuming and expensive&lt;/span&gt;&lt;/div&gt;&lt;div style=&quot;line-height: 60%;&quot;&gt;&lt;span style=&quot;font-size: 12px; font-weight: 400;&quot;&gt;- The independent modalities may not be harmful, but the combination can be harmful --&amp;gt; late fusion fails to detect that&lt;/span&gt;&lt;/div&gt;&lt;div style=&quot;line-height: 60%;&quot;&gt;&lt;span style=&quot;font-size: 12px;&quot;&gt;&lt;u&gt;&lt;font color=&quot;#ff00ff&quot;&gt;Early Fusion:&amp;nbsp;&lt;/font&gt;&lt;/u&gt;&lt;/span&gt;&lt;/div&gt;&lt;div style=&quot;line-height: 60%;&quot;&gt;&lt;span style=&quot;font-size: 12px; font-weight: 400;&quot;&gt;Modalities are combined first, then one single model makes the predictions&lt;/span&gt;&lt;/div&gt;&lt;div style=&quot;line-height: 60%;&quot;&gt;&lt;span style=&quot;font-size: 12px; font-weight: 400;&quot;&gt;Pros:&amp;nbsp;&lt;/span&gt;&lt;/div&gt;&lt;div style=&quot;line-height: 60%;&quot;&gt;&lt;span style=&quot;font-size: 12px; font-weight: 400;&quot;&gt;- Don&#39;t need to collect separate training data for each modality&lt;/span&gt;&lt;/div&gt;&lt;div style=&quot;line-height: 60%;&quot;&gt;&lt;span style=&quot;font-size: 12px; font-weight: 400;&quot;&gt;- Model considers all modalities --&amp;gt; it can capture if the combination of modalities is harmful&lt;/span&gt;&lt;/div&gt;&lt;div style=&quot;line-height: 60%;&quot;&gt;&lt;span style=&quot;font-size: 12px; font-weight: 400;&quot;&gt;Cons:&amp;nbsp;&lt;/span&gt;&lt;/div&gt;&lt;div style=&quot;line-height: 60%;&quot;&gt;&lt;span style=&quot;font-size: 12px; font-weight: 400;&quot;&gt;- More difficult due to complex relationship between modalities&lt;/span&gt;&lt;/div&gt;&lt;div style=&quot;line-height: 60%;&quot;&gt;&lt;span style=&quot;font-size: 12px; font-weight: 400;&quot;&gt;- It needs sufficient training data to learn the relationship and make good predictions --&amp;gt; We have 500 Million posts on the platform per day&lt;/span&gt;&lt;/div&gt;&lt;div style=&quot;text-align: center; line-height: 60%;&quot;&gt;&lt;span style=&quot;font-size: 12px; font-weight: 400;&quot;&gt;&lt;br&gt;&lt;/span&gt;&lt;/div&gt;&lt;div style=&quot;text-align: left; line-height: 60%;&quot;&gt;&lt;span style=&quot;font-size: 12px;&quot;&gt;Model&lt;/span&gt;&lt;/div&gt;&lt;div style=&quot;text-align: left; line-height: 60%;&quot;&gt;&lt;span style=&quot;font-size: 12px;&quot;&gt;1. Binary classifier:&lt;/span&gt;&lt;/div&gt;&lt;div style=&quot;text-align: left; line-height: 60%;&quot;&gt;&lt;span style=&quot;font-size: 12px; font-weight: normal;&quot;&gt;Get the fused features and predict whether its harmful or not&lt;/span&gt;&lt;/div&gt;&lt;div style=&quot;text-align: left; line-height: 60%;&quot;&gt;&lt;span style=&quot;font-size: 12px; font-weight: normal;&quot;&gt;Issues:&amp;nbsp;&lt;/span&gt;&lt;/div&gt;&lt;div style=&quot;text-align: left; line-height: 60%;&quot;&gt;&lt;span style=&quot;font-size: 12px; font-weight: normal;&quot;&gt;- Doesn&#39;t identify which class of harmful, we need to inform the user&lt;/span&gt;&lt;/div&gt;&lt;div style=&quot;text-align: left; line-height: 60%;&quot;&gt;&lt;span style=&quot;font-size: 12px; font-weight: normal;&quot;&gt;- We can&#39;t identify how the model is performing for each class, identifying one class well, and not good for another class --&amp;gt; we can&#39;t improve the model for underperforming classes&lt;/span&gt;&lt;/div&gt;&lt;div style=&quot;text-align: left; line-height: 60%;&quot;&gt;&lt;span style=&quot;font-size: 12px;&quot;&gt;2. One binary classifier per harmful content&lt;/span&gt;&lt;/div&gt;&lt;div style=&quot;text-align: left; line-height: 60%;&quot;&gt;&lt;span style=&quot;font-size: 12px; font-weight: normal;&quot;&gt;One binary classifier for each harmful class, input to all models are the fused features.&amp;nbsp;&lt;/span&gt;&lt;/div&gt;&lt;div style=&quot;text-align: left; line-height: 60%;&quot;&gt;&lt;span style=&quot;font-size: 12px; font-weight: normal;&quot;&gt;Pros:&amp;nbsp;&lt;/span&gt;&lt;/div&gt;&lt;div style=&quot;text-align: left; line-height: 60%;&quot;&gt;&lt;span style=&quot;font-size: 12px; font-weight: normal;&quot;&gt;- We can identify which class of harmful content the post belongs to --&amp;gt; can inform user&lt;/span&gt;&lt;/div&gt;&lt;div style=&quot;text-align: left; line-height: 60%;&quot;&gt;&lt;span style=&quot;font-size: 12px; font-weight: normal;&quot;&gt;- we can improve the model for each class independently&lt;/span&gt;&lt;/div&gt;&lt;div style=&quot;text-align: left; line-height: 60%;&quot;&gt;&lt;span style=&quot;font-size: 12px; font-weight: normal;&quot;&gt;Cons:&amp;nbsp;&lt;/span&gt;&lt;/div&gt;&lt;div style=&quot;text-align: left; line-height: 60%;&quot;&gt;&lt;span style=&quot;font-size: 12px; font-weight: normal;&quot;&gt;- Each model must be trained and maintained&amp;nbsp;&lt;/span&gt;&lt;span style=&quot;font-size: 12px; font-weight: 400;&quot;&gt;separately --&amp;gt; Time consuming and expensive&lt;/span&gt;&lt;/div&gt;&lt;div style=&quot;text-align: left; line-height: 60%;&quot;&gt;&lt;span style=&quot;font-size: 12px;&quot;&gt;3. Multi-label classifier&lt;/span&gt;&lt;/div&gt;&lt;div style=&quot;text-align: left; line-height: 60%;&quot;&gt;&lt;span style=&quot;font-size: 12px; font-weight: normal;&quot;&gt;A single model is used for multi label classification.&amp;nbsp;&lt;/span&gt;&lt;/div&gt;&lt;div style=&quot;text-align: left; line-height: 60%;&quot;&gt;&lt;span style=&quot;font-size: 12px; font-weight: normal;&quot;&gt;Pros:&amp;nbsp;&lt;/span&gt;&lt;/div&gt;&lt;div style=&quot;text-align: left; line-height: 60%;&quot;&gt;&lt;span style=&quot;font-size: 12px; font-weight: normal;&quot;&gt;- training and maintaining is less expensive --&amp;gt; WIPE&lt;/span&gt;&lt;/div&gt;&lt;div style=&quot;text-align: left; line-height: 60%;&quot;&gt;&lt;span style=&quot;font-size: 12px; font-weight: normal;&quot;&gt;Cons:&amp;nbsp;&lt;/span&gt;&lt;/div&gt;&lt;div style=&quot;text-align: left; line-height: 60%;&quot;&gt;&lt;span style=&quot;font-size: 12px; font-weight: normal;&quot;&gt;- &lt;/span&gt;&lt;span style=&quot;font-size: 12px; font-weight: 400;&quot;&gt;The&lt;/span&gt;&lt;span style=&quot;font-size: 12px; font-weight: normal;&quot;&gt;&amp;nbsp;same fused feature is used to make all prediction, we may need to transform the features differently for each class&amp;nbsp;&lt;/span&gt;&lt;/div&gt;&lt;div style=&quot;text-align: left; line-height: 60%;&quot;&gt;&lt;span style=&quot;font-size: 12px;&quot;&gt;&lt;font color=&quot;#ff00ff&quot;&gt;4. Multi-task classifier&lt;/font&gt;&lt;/span&gt;&lt;/div&gt;&lt;div style=&quot;text-align: left; line-height: 60%;&quot;&gt;&lt;span style=&quot;caret-color: rgb(255, 0, 255); font-size: 12px; font-weight: normal;&quot;&gt;Model learns multiple classes (tasks) &lt;/span&gt;&lt;span style=&quot;caret-color: rgb(255, 0, 255); font-size: 12px; font-weight: 400;&quot;&gt;simultaneously, can learn similarity between different tasks. Each class is treated as different task:&amp;nbsp;&lt;/span&gt;&lt;/div&gt;&lt;/div&gt;&lt;div style=&quot;line-height: 60%;&quot;&gt;&lt;span style=&quot;font-size: 12px; font-weight: normal;&quot;&gt;&lt;br&gt;&lt;/span&gt;&lt;/div&gt;&lt;/h1&gt;&lt;p&gt;&lt;/p&gt;" style="text;html=1;align=left;verticalAlign=top;whiteSpace=wrap;rounded=0;" vertex="1" parent="1">
          <mxGeometry x="40" y="900" width="761" height="510" as="geometry" />
        </mxCell>
        <mxCell id="IlfbLXd4Qjn4QDNZ3G44-25" value="" style="edgeStyle=orthogonalEdgeStyle;rounded=0;orthogonalLoop=1;jettySize=auto;html=1;" edge="1" parent="1" source="IlfbLXd4Qjn4QDNZ3G44-15" target="IlfbLXd4Qjn4QDNZ3G44-20">
          <mxGeometry relative="1" as="geometry" />
        </mxCell>
        <mxCell id="IlfbLXd4Qjn4QDNZ3G44-15" value="Fused features" style="rounded=0;whiteSpace=wrap;html=1;" vertex="1" parent="1">
          <mxGeometry x="155" y="1980" width="510" height="20" as="geometry" />
        </mxCell>
        <mxCell id="IlfbLXd4Qjn4QDNZ3G44-18" value="" style="edgeStyle=orthogonalEdgeStyle;rounded=0;orthogonalLoop=1;jettySize=auto;html=1;" edge="1" parent="1" source="IlfbLXd4Qjn4QDNZ3G44-16" target="IlfbLXd4Qjn4QDNZ3G44-17">
          <mxGeometry relative="1" as="geometry" />
        </mxCell>
        <mxCell id="IlfbLXd4Qjn4QDNZ3G44-16" value="Post" style="rounded=0;whiteSpace=wrap;html=1;" vertex="1" parent="1">
          <mxGeometry x="350" y="1800" width="120" height="60" as="geometry" />
        </mxCell>
        <mxCell id="IlfbLXd4Qjn4QDNZ3G44-19" value="" style="edgeStyle=orthogonalEdgeStyle;rounded=0;orthogonalLoop=1;jettySize=auto;html=1;" edge="1" parent="1" source="IlfbLXd4Qjn4QDNZ3G44-17" target="IlfbLXd4Qjn4QDNZ3G44-15">
          <mxGeometry relative="1" as="geometry" />
        </mxCell>
        <mxCell id="IlfbLXd4Qjn4QDNZ3G44-17" value="Early fusion" style="rounded=0;whiteSpace=wrap;html=1;" vertex="1" parent="1">
          <mxGeometry x="365" y="1890" width="90" height="60" as="geometry" />
        </mxCell>
        <mxCell id="IlfbLXd4Qjn4QDNZ3G44-27" value="" style="edgeStyle=orthogonalEdgeStyle;rounded=0;orthogonalLoop=1;jettySize=auto;html=1;" edge="1" parent="1" source="IlfbLXd4Qjn4QDNZ3G44-20" target="IlfbLXd4Qjn4QDNZ3G44-26">
          <mxGeometry relative="1" as="geometry" />
        </mxCell>
        <mxCell id="IlfbLXd4Qjn4QDNZ3G44-20" value="Shared layers" style="rounded=0;whiteSpace=wrap;html=1;" vertex="1" parent="1">
          <mxGeometry x="350" y="2030" width="120" height="60" as="geometry" />
        </mxCell>
        <mxCell id="IlfbLXd4Qjn4QDNZ3G44-36" value="" style="edgeStyle=orthogonalEdgeStyle;rounded=0;orthogonalLoop=1;jettySize=auto;html=1;" edge="1" parent="1" source="IlfbLXd4Qjn4QDNZ3G44-26" target="IlfbLXd4Qjn4QDNZ3G44-29">
          <mxGeometry relative="1" as="geometry" />
        </mxCell>
        <mxCell id="IlfbLXd4Qjn4QDNZ3G44-26" value="Transformed features" style="rounded=0;whiteSpace=wrap;html=1;" vertex="1" parent="1">
          <mxGeometry x="205" y="2110" width="410" height="20" as="geometry" />
        </mxCell>
        <mxCell id="IlfbLXd4Qjn4QDNZ3G44-40" value="" style="edgeStyle=orthogonalEdgeStyle;rounded=0;orthogonalLoop=1;jettySize=auto;html=1;" edge="1" parent="1" source="IlfbLXd4Qjn4QDNZ3G44-28" target="IlfbLXd4Qjn4QDNZ3G44-39">
          <mxGeometry relative="1" as="geometry" />
        </mxCell>
        <mxCell id="IlfbLXd4Qjn4QDNZ3G44-28" value="Violence Classification Head" style="rounded=0;whiteSpace=wrap;html=1;" vertex="1" parent="1">
          <mxGeometry x="190" y="2180" width="120" height="60" as="geometry" />
        </mxCell>
        <mxCell id="IlfbLXd4Qjn4QDNZ3G44-42" value="" style="edgeStyle=orthogonalEdgeStyle;rounded=0;orthogonalLoop=1;jettySize=auto;html=1;" edge="1" parent="1" source="IlfbLXd4Qjn4QDNZ3G44-29" target="IlfbLXd4Qjn4QDNZ3G44-41">
          <mxGeometry relative="1" as="geometry" />
        </mxCell>
        <mxCell id="IlfbLXd4Qjn4QDNZ3G44-29" value="Nudity Classification Head" style="rounded=0;whiteSpace=wrap;html=1;" vertex="1" parent="1">
          <mxGeometry x="350" y="2180" width="120" height="60" as="geometry" />
        </mxCell>
        <mxCell id="IlfbLXd4Qjn4QDNZ3G44-44" value="" style="edgeStyle=orthogonalEdgeStyle;rounded=0;orthogonalLoop=1;jettySize=auto;html=1;" edge="1" parent="1" source="IlfbLXd4Qjn4QDNZ3G44-30" target="IlfbLXd4Qjn4QDNZ3G44-43">
          <mxGeometry relative="1" as="geometry" />
        </mxCell>
        <mxCell id="IlfbLXd4Qjn4QDNZ3G44-30" value="Hate Classification Head" style="rounded=0;whiteSpace=wrap;html=1;" vertex="1" parent="1">
          <mxGeometry x="495" y="2180" width="120" height="60" as="geometry" />
        </mxCell>
        <mxCell id="IlfbLXd4Qjn4QDNZ3G44-37" value="" style="endArrow=classic;html=1;rounded=0;exitX=0.5;exitY=1;exitDx=0;exitDy=0;entryX=0.5;entryY=0;entryDx=0;entryDy=0;" edge="1" parent="1" source="IlfbLXd4Qjn4QDNZ3G44-26" target="IlfbLXd4Qjn4QDNZ3G44-28">
          <mxGeometry width="50" height="50" relative="1" as="geometry">
            <mxPoint x="300" y="2190" as="sourcePoint" />
            <mxPoint x="350" y="2140" as="targetPoint" />
          </mxGeometry>
        </mxCell>
        <mxCell id="IlfbLXd4Qjn4QDNZ3G44-38" value="" style="endArrow=classic;html=1;rounded=0;exitX=0.5;exitY=1;exitDx=0;exitDy=0;entryX=0.5;entryY=0;entryDx=0;entryDy=0;" edge="1" parent="1" source="IlfbLXd4Qjn4QDNZ3G44-26" target="IlfbLXd4Qjn4QDNZ3G44-30">
          <mxGeometry width="50" height="50" relative="1" as="geometry">
            <mxPoint x="300" y="2190" as="sourcePoint" />
            <mxPoint x="350" y="2140" as="targetPoint" />
          </mxGeometry>
        </mxCell>
        <mxCell id="IlfbLXd4Qjn4QDNZ3G44-39" value="Violence Prob" style="rounded=0;whiteSpace=wrap;html=1;" vertex="1" parent="1">
          <mxGeometry x="220" y="2280" width="60" height="60" as="geometry" />
        </mxCell>
        <mxCell id="IlfbLXd4Qjn4QDNZ3G44-49" value="" style="edgeStyle=orthogonalEdgeStyle;rounded=0;orthogonalLoop=1;jettySize=auto;html=1;" edge="1" parent="1" source="IlfbLXd4Qjn4QDNZ3G44-41" target="IlfbLXd4Qjn4QDNZ3G44-47">
          <mxGeometry relative="1" as="geometry" />
        </mxCell>
        <mxCell id="IlfbLXd4Qjn4QDNZ3G44-41" value="Nudity Prob" style="rounded=0;whiteSpace=wrap;html=1;" vertex="1" parent="1">
          <mxGeometry x="380" y="2280" width="60" height="60" as="geometry" />
        </mxCell>
        <mxCell id="IlfbLXd4Qjn4QDNZ3G44-43" value="Hate Prob" style="rounded=0;whiteSpace=wrap;html=1;" vertex="1" parent="1">
          <mxGeometry x="525" y="2280" width="60" height="60" as="geometry" />
        </mxCell>
        <mxCell id="IlfbLXd4Qjn4QDNZ3G44-46" value="Pros:&amp;nbsp;&lt;div&gt;- Not expensive to train, since it&#39;s a single model&lt;/div&gt;&lt;div&gt;- Shared layers transform the features in a way that is beneficial for each task&lt;/div&gt;&lt;div&gt;- Training data for each task contributes to learning of other tasks&lt;/div&gt;&lt;div&gt;&lt;br&gt;&lt;/div&gt;&lt;h4&gt;&lt;font style=&quot;font-size: 24px;&quot;&gt;4. Data preparation&lt;/font&gt;&lt;/h4&gt;&lt;div&gt;&lt;font style=&quot;font-size: 12px;&quot;&gt;&lt;b&gt;Available data:&amp;nbsp;&lt;/b&gt;&lt;/font&gt;&lt;/div&gt;&lt;div&gt;&lt;font style=&quot;font-size: 12px;&quot;&gt;- User:&amp;nbsp;&lt;/font&gt;&lt;/div&gt;&lt;div&gt;&lt;span style=&quot;white-space: pre;&quot;&gt;&#x9;&lt;/span&gt;UserID | username | age | gender | city | country | email&lt;/div&gt;&lt;div&gt;- Post:&amp;nbsp;&lt;/div&gt;&lt;div&gt;&lt;span style=&quot;white-space: pre;&quot;&gt;&#x9;&lt;/span&gt;PostID | authorId | authorIP | timestamp | textual content | image content | video content | URL&lt;/div&gt;&lt;div&gt;- User-post interaction&lt;/div&gt;&lt;div&gt;&lt;span style=&quot;white-space: pre;&quot;&gt;&#x9;UserID | PostID | Interaction type (impression, like, comment, share, report) | interaction value (comment test, report reason) | timestamp&lt;/span&gt;&lt;br&gt;&lt;/div&gt;&lt;div&gt;&lt;span style=&quot;white-space: pre;&quot;&gt;&lt;br&gt;&lt;/span&gt;&lt;/div&gt;&lt;div&gt;&lt;span style=&quot;white-space: pre;&quot;&gt;&lt;b&gt;Feature Engineering: &lt;/b&gt;&lt;/span&gt;&lt;/div&gt;&lt;div&gt;&lt;span style=&quot;white-space: pre;&quot;&gt;&lt;b&gt;- Textual content: &lt;/b&gt;&lt;/span&gt;&lt;/div&gt;&lt;div&gt;&lt;span style=&quot;white-space: pre;&quot;&gt;&lt;span style=&quot;white-space: pre;&quot;&gt;&lt;u&gt;&lt;b&gt;&#x9;&lt;/b&gt;* text preprocessing:&amp;nbsp;&lt;/u&gt;&lt;/span&gt;&lt;/span&gt;&lt;/div&gt;&lt;div&gt;&lt;span style=&quot;white-space: pre;&quot;&gt;&lt;span style=&quot;white-space: pre;&quot;&gt;&lt;span style=&quot;white-space: pre;&quot;&gt;&#x9;&lt;/span&gt;&lt;span style=&quot;white-space: pre;&quot;&gt;&#x9;- &lt;/span&gt;Normalization:&amp;nbsp;lowercasing, punctuation removal, trim whitespace, strip accent, lemmatization and stemming&lt;/span&gt;&lt;/span&gt;&lt;/div&gt;&lt;div&gt;&lt;span style=&quot;white-space: pre;&quot;&gt;&lt;span style=&quot;white-space: pre;&quot;&gt;&lt;span style=&quot;white-space: pre;&quot;&gt;&#x9;&lt;/span&gt;&lt;span style=&quot;white-space: pre;&quot;&gt;&#x9;- &lt;/span&gt;Tokenization: lookup table or hashing&lt;/span&gt;&lt;b&gt;&lt;br&gt;&lt;/b&gt;&lt;/span&gt;&lt;/div&gt;&lt;div&gt;&lt;span style=&quot;white-space: pre;&quot;&gt;&lt;span style=&quot;white-space: pre;&quot;&gt;&lt;span style=&quot;white-space: pre;&quot;&gt;&#x9;&lt;/span&gt;&lt;span style=&quot;white-space: pre;&quot;&gt;&#x9;&lt;/span&gt;&lt;span style=&quot;white-space: pre;&quot;&gt;&#x9;lookup table: &lt;/span&gt;&lt;br&gt;&lt;/span&gt;&lt;/span&gt;&lt;/div&gt;&lt;div&gt;&lt;span style=&quot;white-space: pre;&quot;&gt;&lt;span style=&quot;white-space: pre;&quot;&gt;&lt;span style=&quot;white-space: pre;&quot;&gt;&lt;span style=&quot;white-space: pre;&quot;&gt;&#x9;&lt;/span&gt;&lt;span style=&quot;white-space: pre;&quot;&gt;&#x9;&lt;/span&gt;&lt;span style=&quot;white-space: pre;&quot;&gt;&#x9;&lt;/span&gt;&lt;span style=&quot;white-space: pre;&quot;&gt;&#x9;Pros:&lt;/span&gt;&lt;br&gt;&lt;/span&gt;&lt;/span&gt;&lt;/span&gt;&lt;/div&gt;&lt;div&gt;&lt;span style=&quot;white-space: pre;&quot;&gt;&lt;span style=&quot;white-space: pre;&quot;&gt;&lt;span style=&quot;white-space: pre;&quot;&gt;&lt;span style=&quot;white-space: pre;&quot;&gt;&lt;span style=&quot;white-space: pre;&quot;&gt;&#x9;&lt;/span&gt;&lt;span style=&quot;white-space: pre;&quot;&gt;&#x9;&lt;/span&gt;&lt;span style=&quot;white-space: pre;&quot;&gt;&#x9;&lt;/span&gt;&lt;span style=&quot;white-space: pre;&quot;&gt;&#x9;- quick to convert tokens to ids&lt;/span&gt;&lt;br&gt;&lt;/span&gt;&lt;/span&gt;&lt;/span&gt;&lt;/span&gt;&lt;/div&gt;&lt;div&gt;&lt;span style=&quot;white-space: pre;&quot;&gt;&lt;span style=&quot;white-space: pre;&quot;&gt;&lt;span style=&quot;white-space: pre;&quot;&gt;&lt;span style=&quot;white-space: pre;&quot;&gt;&lt;span style=&quot;white-space: pre;&quot;&gt;&lt;span style=&quot;white-space: pre;&quot;&gt;&#x9;&lt;/span&gt;&lt;span style=&quot;white-space: pre;&quot;&gt;&#x9;&lt;/span&gt;&lt;span style=&quot;white-space: pre;&quot;&gt;&#x9;&lt;/span&gt;&lt;span style=&quot;white-space: pre;&quot;&gt;&#x9;- easy to convert ids to tokens&lt;/span&gt;&lt;br&gt;&lt;/span&gt;&lt;/span&gt;&lt;/span&gt;&lt;/span&gt;&lt;/span&gt;&lt;/div&gt;&lt;div&gt;&lt;span style=&quot;white-space: pre;&quot;&gt;&lt;span style=&quot;white-space: pre;&quot;&gt;&lt;span style=&quot;white-space: pre;&quot;&gt;&lt;span style=&quot;white-space: pre;&quot;&gt;&lt;span style=&quot;white-space: pre;&quot;&gt;&lt;span style=&quot;white-space: pre;&quot;&gt;&lt;span style=&quot;white-space: pre;&quot;&gt;&#x9;&lt;/span&gt;&lt;span style=&quot;white-space: pre;&quot;&gt;&#x9;&lt;/span&gt;&lt;span style=&quot;white-space: pre;&quot;&gt;&#x9;&lt;/span&gt;&lt;span style=&quot;white-space: pre;&quot;&gt;&#x9;- no collision issue&lt;/span&gt;&lt;br&gt;&lt;/span&gt;&lt;/span&gt;&lt;/span&gt;&lt;/span&gt;&lt;/span&gt;&lt;/span&gt;&lt;/div&gt;&lt;div&gt;&lt;span style=&quot;white-space: pre;&quot;&gt;&lt;span style=&quot;white-space: pre;&quot;&gt;&lt;span style=&quot;white-space: pre;&quot;&gt;&lt;span style=&quot;white-space: pre;&quot;&gt;&lt;span style=&quot;white-space: pre;&quot;&gt;&lt;span style=&quot;white-space: pre;&quot;&gt;&lt;span style=&quot;white-space: pre;&quot;&gt;&lt;span style=&quot;white-space: pre;&quot;&gt;&#x9;&lt;/span&gt;&lt;span style=&quot;white-space: pre;&quot;&gt;&#x9;&lt;/span&gt;&lt;span style=&quot;white-space: pre;&quot;&gt;&#x9;&lt;/span&gt;&lt;span style=&quot;white-space: pre;&quot;&gt;&#x9;Cons: &lt;/span&gt;&lt;br&gt;&lt;/span&gt;&lt;/span&gt;&lt;/span&gt;&lt;/span&gt;&lt;/span&gt;&lt;/span&gt;&lt;/span&gt;&lt;/div&gt;&lt;div&gt;&lt;span style=&quot;white-space: pre;&quot;&gt;&lt;span style=&quot;white-space: pre;&quot;&gt;&lt;span style=&quot;white-space: pre;&quot;&gt;&lt;span style=&quot;white-space: pre;&quot;&gt;&lt;span style=&quot;white-space: pre;&quot;&gt;&lt;span style=&quot;white-space: pre;&quot;&gt;&lt;span style=&quot;white-space: pre;&quot;&gt;&lt;span style=&quot;white-space: pre;&quot;&gt;&lt;span style=&quot;white-space: pre;&quot;&gt;&#x9;&lt;/span&gt;&lt;span style=&quot;white-space: pre;&quot;&gt;&#x9;&lt;/span&gt;&lt;span style=&quot;white-space: pre;&quot;&gt;&#x9;&lt;/span&gt;&lt;span style=&quot;white-space: pre;&quot;&gt;&#x9;- table is stored in memory --&amp;gt; increased memory usage with large number of words&lt;/span&gt;&lt;br&gt;&lt;/span&gt;&lt;/span&gt;&lt;/span&gt;&lt;/span&gt;&lt;/span&gt;&lt;/span&gt;&lt;/span&gt;&lt;/span&gt;&lt;/div&gt;&lt;div&gt;&lt;span style=&quot;white-space: pre;&quot;&gt;&#x9;&lt;/span&gt;&lt;span style=&quot;white-space: pre;&quot;&gt;&#x9;&lt;/span&gt;&lt;span style=&quot;white-space: pre;&quot;&gt;&#x9;&lt;/span&gt;&lt;span style=&quot;white-space: pre;&quot;&gt;&#x9;- new/unseen words can&#39;t be properly handled&lt;/span&gt;&lt;br&gt;&lt;/div&gt;&lt;div&gt;&lt;span style=&quot;white-space: pre;&quot;&gt;&lt;span style=&quot;white-space: pre;&quot;&gt;&#x9;&lt;/span&gt;&lt;span style=&quot;white-space: pre;&quot;&gt;&#x9;&lt;/span&gt;&lt;span style=&quot;white-space: pre;&quot;&gt;&#x9;Hashing:&lt;/span&gt;&lt;br&gt;&lt;/span&gt;&lt;/div&gt;&lt;div&gt;&lt;span style=&quot;white-space: pre;&quot;&gt;&lt;span style=&quot;white-space: pre;&quot;&gt;&lt;span style=&quot;white-space: pre;&quot;&gt;&#x9;&lt;/span&gt;&lt;span style=&quot;white-space: pre;&quot;&gt;&#x9;&lt;/span&gt;&lt;span style=&quot;white-space: pre;&quot;&gt;&#x9;&lt;/span&gt;&lt;span style=&quot;white-space: pre;&quot;&gt;&#x9;Pros: &lt;/span&gt;&lt;br&gt;&lt;/span&gt;&lt;/span&gt;&lt;/div&gt;&lt;div&gt;&lt;span style=&quot;white-space: pre;&quot;&gt;&lt;span style=&quot;white-space: pre;&quot;&gt;&lt;span style=&quot;white-space: pre;&quot;&gt;&lt;span style=&quot;white-space: pre;&quot;&gt;&#x9;&lt;/span&gt;&lt;span style=&quot;white-space: pre;&quot;&gt;&#x9;&lt;/span&gt;&lt;span style=&quot;white-space: pre;&quot;&gt;&#x9;&lt;/span&gt;&lt;span style=&quot;white-space: pre;&quot;&gt;&#x9;- hash function is sufficient to convert any token to id&lt;/span&gt;&lt;br&gt;&lt;/span&gt;&lt;/span&gt;&lt;/span&gt;&lt;/div&gt;&lt;div&gt;&lt;span style=&quot;white-space: pre;&quot;&gt;&lt;span style=&quot;white-space: pre;&quot;&gt;&lt;span style=&quot;white-space: pre;&quot;&gt;&lt;span style=&quot;white-space: pre;&quot;&gt;&lt;span style=&quot;white-space: pre;&quot;&gt;&#x9;&lt;/span&gt;&lt;span style=&quot;white-space: pre;&quot;&gt;&#x9;&lt;/span&gt;&lt;span style=&quot;white-space: pre;&quot;&gt;&#x9;&lt;/span&gt;&lt;span style=&quot;white-space: pre;&quot;&gt;&#x9;- easily handles new/unween words by applying hash function to it&lt;/span&gt;&lt;br&gt;&lt;/span&gt;&lt;/span&gt;&lt;/span&gt;&lt;/span&gt;&lt;/div&gt;&lt;div&gt;&lt;span style=&quot;white-space: pre;&quot;&gt;&lt;span style=&quot;white-space: pre;&quot;&gt;&lt;span style=&quot;white-space: pre;&quot;&gt;&lt;span style=&quot;white-space: pre;&quot;&gt;&lt;span style=&quot;white-space: pre;&quot;&gt;&lt;span style=&quot;white-space: pre;&quot;&gt;&#x9;&lt;/span&gt;&lt;span style=&quot;white-space: pre;&quot;&gt;&#x9;&lt;/span&gt;&lt;span style=&quot;white-space: pre;&quot;&gt;&#x9;&lt;/span&gt;&lt;span style=&quot;white-space: pre;&quot;&gt;&#x9;Cons: &lt;/span&gt;&lt;br&gt;&lt;/span&gt;&lt;/span&gt;&lt;/span&gt;&lt;/span&gt;&lt;/span&gt;&lt;/div&gt;&lt;div&gt;&lt;span style=&quot;white-space: pre;&quot;&gt;&lt;span style=&quot;white-space: pre;&quot;&gt;&lt;span style=&quot;white-space: pre;&quot;&gt;&lt;span style=&quot;white-space: pre;&quot;&gt;&lt;span style=&quot;white-space: pre;&quot;&gt;&lt;span style=&quot;white-space: pre;&quot;&gt;&lt;span style=&quot;white-space: pre;&quot;&gt;&#x9;&lt;/span&gt;&lt;span style=&quot;white-space: pre;&quot;&gt;&#x9;&lt;/span&gt;&lt;span style=&quot;white-space: pre;&quot;&gt;&#x9;&lt;/span&gt;&lt;span style=&quot;white-space: pre;&quot;&gt;&#x9;- need to compute hash function to convert token to ID&lt;/span&gt;&lt;br&gt;&lt;/span&gt;&lt;/span&gt;&lt;/span&gt;&lt;/span&gt;&lt;/span&gt;&lt;/span&gt;&lt;/div&gt;&lt;div&gt;&lt;span style=&quot;white-space: pre;&quot;&gt;&lt;span style=&quot;white-space: pre;&quot;&gt;&lt;span style=&quot;white-space: pre;&quot;&gt;&lt;span style=&quot;white-space: pre;&quot;&gt;&lt;span style=&quot;white-space: pre;&quot;&gt;&lt;span style=&quot;white-space: pre;&quot;&gt;&lt;span style=&quot;white-space: pre;&quot;&gt;&lt;span style=&quot;white-space: pre;&quot;&gt;&#x9;&lt;/span&gt;&lt;span style=&quot;white-space: pre;&quot;&gt;&#x9;&lt;/span&gt;&lt;span style=&quot;white-space: pre;&quot;&gt;&#x9;&lt;/span&gt;&lt;span style=&quot;white-space: pre;&quot;&gt;&#x9;- not possible to convert ID to token&lt;/span&gt;&lt;br&gt;&lt;/span&gt;&lt;/span&gt;&lt;/span&gt;&lt;/span&gt;&lt;/span&gt;&lt;/span&gt;&lt;/span&gt;&lt;/div&gt;&lt;div&gt;&lt;span style=&quot;white-space: pre;&quot;&gt;&lt;span style=&quot;white-space: pre;&quot;&gt;&lt;span style=&quot;white-space: pre;&quot;&gt;&lt;span style=&quot;white-space: pre;&quot;&gt;&lt;span style=&quot;white-space: pre;&quot;&gt;&lt;span style=&quot;white-space: pre;&quot;&gt;&lt;span style=&quot;white-space: pre;&quot;&gt;&lt;span style=&quot;white-space: pre;&quot;&gt;&lt;span style=&quot;white-space: pre;&quot;&gt;&#x9;&lt;/span&gt;&lt;span style=&quot;white-space: pre;&quot;&gt;&#x9;&lt;/span&gt;&lt;span style=&quot;white-space: pre;&quot;&gt;&#x9;&lt;/span&gt;&lt;span style=&quot;white-space: pre;&quot;&gt;&#x9;- Collision issues&lt;/span&gt;&lt;br&gt;&lt;/span&gt;&lt;/span&gt;&lt;/span&gt;&lt;/span&gt;&lt;/span&gt;&lt;/span&gt;&lt;/span&gt;&lt;/span&gt;&lt;/div&gt;&lt;div&gt;&lt;u&gt;&lt;span style=&quot;white-space: pre;&quot;&gt;&#x9;* Vectorization: convert preprocessed&lt;/span&gt; &lt;span style=&quot;white-space: pre;&quot;&gt;text into meaningful feature vector&#x9;&lt;/span&gt;&lt;span style=&quot;white-space: pre;&quot;&gt;&#x9;&lt;/span&gt;&lt;/u&gt;&lt;/div&gt;&lt;div&gt;&lt;span style=&quot;white-space: pre;&quot;&gt;&lt;span style=&quot;white-space: pre;&quot;&gt;&#x9;&lt;/span&gt;&lt;span style=&quot;white-space: pre;&quot;&gt;&#x9;&lt;/span&gt;- Statistica&lt;/span&gt;&lt;span style=&quot;white-space: pre;&quot;&gt;l: &lt;/span&gt;&lt;/div&gt;&lt;div&gt;&lt;span style=&quot;white-space: pre;&quot;&gt;&lt;span style=&quot;white-space: pre;&quot;&gt;&#x9;&lt;/span&gt;&lt;span style=&quot;white-space: pre;&quot;&gt;&#x9;&lt;/span&gt;&lt;span style=&quot;white-space: pre;&quot;&gt;&#x9;- BagOfWords&lt;/span&gt;&lt;br&gt;&lt;/span&gt;&lt;/div&gt;&lt;div&gt;&lt;span style=&quot;white-space: pre;&quot;&gt;&lt;span style=&quot;white-space: pre;&quot;&gt;&lt;span style=&quot;white-space: pre;&quot;&gt;&#x9;&lt;/span&gt;&lt;span style=&quot;white-space: pre;&quot;&gt;&#x9;&lt;/span&gt;&lt;span style=&quot;white-space: pre;&quot;&gt;&#x9;- TF-IDF&lt;/span&gt;&lt;br&gt;&lt;/span&gt;&lt;/span&gt;&lt;/div&gt;&lt;div&gt;&lt;span style=&quot;white-space: pre;&quot;&gt;&lt;span style=&quot;white-space: pre;&quot;&gt;&lt;span style=&quot;white-space: pre;&quot;&gt;&lt;span style=&quot;white-space: pre;&quot;&gt;&#x9;&lt;/span&gt;&lt;span style=&quot;white-space: pre;&quot;&gt;&#x9;&lt;/span&gt;&lt;span style=&quot;white-space: pre;&quot;&gt;&#x9;&lt;/span&gt;Pros: &lt;/span&gt;&lt;/span&gt;&lt;/span&gt;&lt;/div&gt;&lt;div&gt;&lt;span style=&quot;white-space: pre;&quot;&gt;&lt;span style=&quot;white-space: pre;&quot;&gt;&lt;span style=&quot;white-space: pre;&quot;&gt;&lt;span style=&quot;white-space: pre;&quot;&gt;&#x9;&lt;/span&gt;&lt;span style=&quot;white-space: pre;&quot;&gt;&#x9;&lt;/span&gt;&lt;span style=&quot;white-space: pre;&quot;&gt;&#x9;- Easy to implement and fast to compute&lt;/span&gt;&lt;br&gt;&lt;/span&gt;&lt;/span&gt;&lt;/span&gt;&lt;/div&gt;&lt;div&gt;&lt;span style=&quot;white-space: pre;&quot;&gt;&lt;span style=&quot;white-space: pre;&quot;&gt;&lt;span style=&quot;white-space: pre;&quot;&gt;&lt;span style=&quot;white-space: pre;&quot;&gt;&lt;span style=&quot;white-space: pre;&quot;&gt;&#x9;&lt;/span&gt;&lt;span style=&quot;white-space: pre;&quot;&gt;&#x9;&lt;/span&gt;&lt;span style=&quot;white-space: pre;&quot;&gt;&#x9;&lt;/span&gt;Cons:&lt;/span&gt;&lt;/span&gt;&lt;/span&gt;&lt;/span&gt;&lt;/div&gt;&lt;div&gt;&lt;span style=&quot;white-space: pre;&quot;&gt;&lt;span style=&quot;white-space: pre;&quot;&gt;&lt;span style=&quot;white-space: pre;&quot;&gt;&lt;span style=&quot;white-space: pre;&quot;&gt;&lt;span style=&quot;white-space: pre;&quot;&gt;&#x9;&lt;/span&gt;&lt;span style=&quot;white-space: pre;&quot;&gt;&#x9;&lt;/span&gt;&lt;span style=&quot;white-space: pre;&quot;&gt;&#x9;&lt;/span&gt;- can&#39;t encode semantics&lt;span style=&quot;white-space: pre;&quot;&gt;&#x9;&lt;/span&gt;  &lt;/span&gt;&lt;/span&gt;&lt;/span&gt;&lt;/span&gt;&lt;/div&gt;&lt;div&gt;&lt;span style=&quot;white-space: pre;&quot;&gt;&lt;span style=&quot;white-space: pre;&quot;&gt;&#x9;&lt;/span&gt;&lt;span style=&quot;white-space: pre;&quot;&gt;&#x9;- ML-Based&lt;/span&gt;&lt;/span&gt;&lt;/div&gt;&lt;div&gt;&lt;span style=&quot;white-space: pre;&quot;&gt;&lt;span style=&quot;white-space: pre;&quot;&gt;&lt;span style=&quot;white-space: pre;&quot;&gt;&#x9;&lt;/span&gt;&lt;span style=&quot;white-space: pre;&quot;&gt;&#x9;&lt;/span&gt;&lt;span style=&quot;white-space: pre;&quot;&gt;&#x9;&lt;/span&gt;- Embedding&lt;/span&gt;&lt;/span&gt;&lt;/div&gt;&lt;div&gt;&lt;span style=&quot;white-space: pre;&quot;&gt;&lt;span style=&quot;white-space: pre;&quot;&gt;&lt;span style=&quot;white-space: pre;&quot;&gt;&#x9;&lt;span style=&quot;white-space: pre;&quot;&gt;&#x9;&lt;/span&gt;&lt;span style=&quot;white-space: pre;&quot;&gt;&#x9;&lt;/span&gt;&lt;/span&gt;- Word2Vec&lt;span style=&quot;white-space: pre;&quot;&gt;&#x9;&lt;/span&gt; &lt;/span&gt;&lt;/span&gt;&lt;/div&gt;&lt;div&gt;&lt;span style=&quot;white-space: pre;&quot;&gt;&lt;span style=&quot;white-space: pre;&quot;&gt;&#x9;&lt;/span&gt;&lt;span style=&quot;white-space: pre;&quot;&gt;&#x9;&lt;/span&gt;&lt;span style=&quot;white-space: pre;&quot;&gt;&#x9;- &lt;b&gt;Pre-trained Transformer-Based language model&lt;/b&gt; (Consider the context of the word in the sentence which is important for us)&amp;nbsp;&lt;/span&gt;&lt;/span&gt;&lt;/div&gt;&lt;div&gt;&lt;span style=&quot;white-space: pre;&quot;&gt;&#x9;&lt;/span&gt;&lt;span style=&quot;white-space: pre;&quot;&gt;&#x9;&lt;/span&gt;&lt;span style=&quot;white-space: pre;&quot;&gt;&#x9;&#x9;* BERT: takes long to produce embedding and it&#39;s trained on English only data&lt;/span&gt;&lt;/div&gt;&lt;div&gt;&lt;span style=&quot;white-space: pre;&quot;&gt;&lt;span style=&quot;white-space: pre;&quot;&gt;&#x9;&lt;/span&gt;&lt;span style=&quot;white-space: pre;&quot;&gt;&#x9;&lt;/span&gt;&lt;span style=&quot;white-space: pre;&quot;&gt;&#x9;&lt;/span&gt;&lt;span style=&quot;white-space: pre;&quot;&gt;&#x9;* &lt;font color=&quot;#ff00ff&quot;&gt;DistilmBERT&lt;/font&gt;: &lt;/span&gt;&lt;br&gt;&lt;/span&gt;&lt;/div&gt;&lt;div&gt;&lt;span style=&quot;white-space: pre;&quot;&gt;&lt;span style=&quot;white-space: pre;&quot;&gt;&lt;span style=&quot;white-space: pre;&quot;&gt;&#x9;&lt;/span&gt;&lt;span style=&quot;white-space: pre;&quot;&gt;&#x9;&lt;/span&gt;&lt;span style=&quot;white-space: pre;&quot;&gt;&#x9;&lt;/span&gt;&lt;span style=&quot;white-space: pre;&quot;&gt;&#x9;&lt;/span&gt;&lt;span style=&quot;white-space: pre;&quot;&gt;&#x9;- More efficient&lt;/span&gt;&lt;br&gt;&lt;/span&gt;&lt;/span&gt;&lt;/div&gt;&lt;div&gt;&lt;span style=&quot;white-space: pre;&quot;&gt;&lt;span style=&quot;white-space: pre;&quot;&gt;&lt;span style=&quot;white-space: pre;&quot;&gt;&lt;span style=&quot;white-space: pre;&quot;&gt;&#x9;&lt;/span&gt;&lt;span style=&quot;white-space: pre;&quot;&gt;&#x9;&lt;/span&gt;&lt;span style=&quot;white-space: pre;&quot;&gt;&#x9;&lt;/span&gt;&lt;span style=&quot;white-space: pre;&quot;&gt;&#x9;&lt;/span&gt;&lt;span style=&quot;white-space: pre;&quot;&gt;&#x9;- If two sentences have similar meaning in two different languages, their embedding will be very similar&lt;/span&gt;&lt;br&gt;&lt;/span&gt;&lt;/span&gt;&lt;/span&gt;&lt;/div&gt;&lt;div&gt;&lt;span style=&quot;white-space: pre;&quot;&gt;&lt;b&gt;- Image / Video&lt;/b&gt;&lt;/span&gt;&lt;/div&gt;&lt;div&gt;&lt;span style=&quot;white-space: pre;&quot;&gt;&lt;span style=&quot;white-space: pre;&quot;&gt;&lt;b&gt;&#x9;&lt;/b&gt;* Preprocessing: Decode, resize, normalize&lt;/span&gt;&lt;br&gt;&lt;/span&gt;&lt;/div&gt;&lt;div&gt;&lt;span style=&quot;white-space: pre;&quot;&gt;&#x9;* Feature Extraction: Use a pretrained model to convert the unstructured data into feature vectors: &lt;/span&gt;&lt;b style=&quot;white-space: pre;&quot;&gt;&lt;br&gt;&lt;/b&gt;&lt;/div&gt;&lt;div&gt;&lt;span style=&quot;white-space: pre;&quot;&gt;&lt;span style=&quot;white-space: pre;&quot;&gt;&#x9;&lt;/span&gt;&lt;span style=&quot;white-space: pre;&quot;&gt;&#x9;- Image: CLIP visual encoder or SilCLR&lt;/span&gt;&lt;br&gt;&lt;/span&gt;&lt;/div&gt;&lt;div&gt;&lt;span style=&quot;white-space: pre;&quot;&gt;&lt;span style=&quot;white-space: pre;&quot;&gt;&lt;span style=&quot;white-space: pre;&quot;&gt;&#x9;&lt;/span&gt;&lt;span style=&quot;white-space: pre;&quot;&gt;&#x9;- Video: VideoMoCo&lt;/span&gt;&lt;br&gt;&lt;/span&gt;&lt;/span&gt;&lt;/div&gt;&lt;div&gt;&lt;span style=&quot;white-space: pre;&quot;&gt;&lt;b&gt;- user reactions to post&lt;/b&gt;&lt;/span&gt;&lt;/div&gt;&lt;div&gt;&lt;span style=&quot;white-space: pre;&quot;&gt;&lt;b&gt; &lt;/b&gt;&lt;span style=&quot;white-space: pre;&quot;&gt;&lt;b&gt;&#x9;&lt;/b&gt;- number of like, share, comment, report: scale them to speed up convergence&lt;/span&gt;&lt;/span&gt;&lt;/div&gt;&lt;div&gt;&lt;span style=&quot;white-space: pre;&quot;&gt;&lt;span style=&quot;white-space: pre;&quot;&gt;&lt;span style=&quot;white-space: pre;&quot;&gt;&#x9;- comments: use the same model (DistilmBERT) to obtain embedding for comments and aggregate them (e.g. average)&lt;/span&gt;&lt;/span&gt;&lt;/span&gt;&lt;/div&gt;&lt;div&gt;&lt;span style=&quot;white-space: pre;&quot;&gt;&lt;b&gt;- author info&lt;/b&gt;&lt;/span&gt;&lt;/div&gt;&lt;div&gt;&lt;span style=&quot;white-space: pre;&quot;&gt;&lt;span style=&quot;white-space: pre;&quot;&gt;&lt;b&gt;&#x9;&lt;/b&gt;* Violation history&lt;/span&gt;&lt;br&gt;&lt;/span&gt;&lt;/div&gt;&lt;div&gt;&lt;span style=&quot;white-space: pre;&quot;&gt;&lt;span style=&quot;white-space: pre;&quot;&gt;&lt;span style=&quot;white-space: pre;&quot;&gt;&#x9;&lt;/span&gt;&lt;span style=&quot;white-space: pre;&quot;&gt;&#x9;- number of violations&lt;/span&gt;&lt;br&gt;&lt;/span&gt;&lt;/span&gt;&lt;/div&gt;&lt;div&gt;&lt;span style=&quot;white-space: pre;&quot;&gt;&lt;span style=&quot;white-space: pre;&quot;&gt;&lt;span style=&quot;white-space: pre;&quot;&gt;&lt;span style=&quot;white-space: pre;&quot;&gt;&#x9;&lt;/span&gt;&lt;span style=&quot;white-space: pre;&quot;&gt;&#x9;- total user reports&lt;/span&gt;&lt;br&gt;&lt;/span&gt;&lt;/span&gt;&lt;/span&gt;&lt;/div&gt;&lt;div&gt;&lt;span style=&quot;white-space: pre;&quot;&gt;&lt;span style=&quot;white-space: pre;&quot;&gt;&lt;span style=&quot;white-space: pre;&quot;&gt;&lt;span style=&quot;white-space: pre;&quot;&gt;&lt;span style=&quot;white-space: pre;&quot;&gt;&#x9;&lt;/span&gt;&lt;span style=&quot;white-space: pre;&quot;&gt;&#x9;- profane word rate&lt;/span&gt;&lt;br&gt;&lt;/span&gt;&lt;/span&gt;&lt;/span&gt;&lt;/span&gt;&lt;/div&gt;&lt;div&gt;&lt;span style=&quot;white-space: pre;&quot;&gt;&lt;span style=&quot;white-space: pre;&quot;&gt;&lt;span style=&quot;white-space: pre;&quot;&gt;&#x9;* Demographics&lt;/span&gt;&lt;br&gt;&lt;/span&gt;&lt;/span&gt;&lt;/div&gt;&lt;div&gt;&lt;span style=&quot;white-space: pre;&quot;&gt;&lt;span style=&quot;white-space: pre;&quot;&gt;&lt;span style=&quot;white-space: pre;&quot;&gt;&lt;span style=&quot;white-space: pre;&quot;&gt;&#x9;&lt;/span&gt;&lt;span style=&quot;white-space: pre;&quot;&gt;&#x9;- age&lt;/span&gt;&lt;br&gt;&lt;/span&gt;&lt;/span&gt;&lt;/span&gt;&lt;/div&gt;&lt;div&gt;&lt;span style=&quot;white-space: pre;&quot;&gt;&lt;span style=&quot;white-space: pre;&quot;&gt;&lt;span style=&quot;white-space: pre;&quot;&gt;&lt;span style=&quot;white-space: pre;&quot;&gt;&lt;span style=&quot;white-space: pre;&quot;&gt;&#x9;&lt;/span&gt;&lt;span style=&quot;white-space: pre;&quot;&gt;&#x9;- gender&lt;/span&gt;&lt;br&gt;&lt;/span&gt;&lt;/span&gt;&lt;/span&gt;&lt;/span&gt;&lt;/div&gt;&lt;div&gt;&lt;span style=&quot;white-space: pre;&quot;&gt;&#x9;&lt;/span&gt;&lt;span style=&quot;white-space: pre;&quot;&gt;&#x9;- city and country (use embedding to convert to feature vectors)&lt;/span&gt;&lt;br&gt;&lt;/div&gt;&lt;div&gt;&lt;span style=&quot;white-space: pre;&quot;&gt;&lt;span style=&quot;white-space: pre;&quot;&gt;&#x9;* Account info&lt;/span&gt;&lt;br&gt;&lt;/span&gt;&lt;/div&gt;&lt;div&gt;&lt;span style=&quot;white-space: pre;&quot;&gt;&lt;span style=&quot;white-space: pre;&quot;&gt;&lt;span style=&quot;white-space: pre;&quot;&gt;&#x9;&lt;/span&gt;&lt;span style=&quot;white-space: pre;&quot;&gt;&#x9;- number of followers and followings&lt;/span&gt;&lt;br&gt;&lt;/span&gt;&lt;/span&gt;&lt;/div&gt;&lt;div&gt;&lt;span style=&quot;white-space: pre;&quot;&gt;&lt;span style=&quot;white-space: pre;&quot;&gt;&lt;span style=&quot;white-space: pre;&quot;&gt;&lt;span style=&quot;white-space: pre;&quot;&gt;&#x9;&lt;/span&gt;&lt;span style=&quot;white-space: pre;&quot;&gt;&#x9;- account age&lt;/span&gt;&lt;/span&gt;&lt;/span&gt;&lt;/span&gt;&lt;/div&gt;&lt;div&gt;&lt;span style=&quot;white-space: pre;&quot;&gt;&lt;b&gt;- contextual info&lt;/b&gt;&lt;/span&gt;&lt;/div&gt;&lt;div&gt;&lt;span style=&quot;white-space: pre;&quot;&gt;&lt;span style=&quot;white-space: pre;&quot;&gt;&lt;b&gt;&#x9;&lt;/b&gt;- Time of Day --&amp;gt; Bucketize (morning, noon, afternoon, evening, night) --&amp;gt; One hot encoding&lt;/span&gt;&lt;br&gt;&lt;/span&gt;&lt;/div&gt;&lt;div&gt;&lt;span style=&quot;white-space: pre;&quot;&gt;&lt;span style=&quot;white-space: pre;&quot;&gt;&lt;span style=&quot;white-space: pre;&quot;&gt;&#x9;- Device: mobile, desktop, ... &lt;/span&gt;&lt;/span&gt;&lt;/span&gt;&lt;span style=&quot;white-space: pre;&quot;&gt;--&amp;gt; One hot encoding&lt;/span&gt;&lt;/div&gt;&lt;div&gt;&lt;span style=&quot;white-space: pre;&quot;&gt;&lt;span style=&quot;white-space: pre;&quot;&gt;&lt;span style=&quot;white-space: pre;&quot;&gt;&lt;span style=&quot;white-space: pre;&quot;&gt;&#x9;- OS: &lt;/span&gt;&lt;/span&gt;&lt;/span&gt;iOS, android, ... &lt;/span&gt;&lt;span style=&quot;white-space: pre;&quot;&gt;--&amp;gt; One hot encoding&lt;/span&gt;&lt;/div&gt;&lt;div&gt;&lt;font style=&quot;font-size: 12px;&quot;&gt;&lt;br&gt;&lt;/font&gt;&lt;/div&gt;&lt;div&gt;&amp;nbsp;&lt;/div&gt;" style="text;html=1;align=left;verticalAlign=top;whiteSpace=wrap;rounded=0;" vertex="1" parent="1">
          <mxGeometry x="40" y="2470" width="760" height="1130" as="geometry" />
        </mxCell>
        <mxCell id="IlfbLXd4Qjn4QDNZ3G44-47" value="Harmful Prob" style="rounded=0;whiteSpace=wrap;html=1;" vertex="1" parent="1">
          <mxGeometry x="350" y="2400" width="120" height="60" as="geometry" />
        </mxCell>
        <mxCell id="IlfbLXd4Qjn4QDNZ3G44-48" value="" style="endArrow=classic;html=1;rounded=0;exitX=0.5;exitY=1;exitDx=0;exitDy=0;entryX=0.25;entryY=0;entryDx=0;entryDy=0;" edge="1" parent="1" source="IlfbLXd4Qjn4QDNZ3G44-39" target="IlfbLXd4Qjn4QDNZ3G44-47">
          <mxGeometry width="50" height="50" relative="1" as="geometry">
            <mxPoint x="420" y="2510" as="sourcePoint" />
            <mxPoint x="470" y="2460" as="targetPoint" />
          </mxGeometry>
        </mxCell>
        <mxCell id="IlfbLXd4Qjn4QDNZ3G44-50" value="" style="endArrow=classic;html=1;rounded=0;exitX=0.5;exitY=1;exitDx=0;exitDy=0;entryX=0.75;entryY=0;entryDx=0;entryDy=0;" edge="1" parent="1" source="IlfbLXd4Qjn4QDNZ3G44-43" target="IlfbLXd4Qjn4QDNZ3G44-47">
          <mxGeometry width="50" height="50" relative="1" as="geometry">
            <mxPoint x="420" y="2510" as="sourcePoint" />
            <mxPoint x="470" y="2460" as="targetPoint" />
          </mxGeometry>
        </mxCell>
        <mxCell id="IlfbLXd4Qjn4QDNZ3G44-117" value="" style="group" vertex="1" connectable="0" parent="1">
          <mxGeometry x="50" y="3610" width="790" height="980" as="geometry" />
        </mxCell>
        <mxCell id="IlfbLXd4Qjn4QDNZ3G44-58" value="" style="edgeStyle=orthogonalEdgeStyle;rounded=0;orthogonalLoop=1;jettySize=auto;html=1;" edge="1" parent="IlfbLXd4Qjn4QDNZ3G44-117" source="IlfbLXd4Qjn4QDNZ3G44-52" target="IlfbLXd4Qjn4QDNZ3G44-55">
          <mxGeometry relative="1" as="geometry" />
        </mxCell>
        <mxCell id="IlfbLXd4Qjn4QDNZ3G44-52" value="Post:&lt;div&gt;&lt;ul&gt;&lt;li&gt;Author&lt;/li&gt;&lt;li&gt;Text&lt;/li&gt;&lt;li&gt;Image&lt;/li&gt;&lt;li&gt;Video&lt;/li&gt;&lt;/ul&gt;&lt;/div&gt;" style="whiteSpace=wrap;html=1;aspect=fixed;align=left;" vertex="1" parent="IlfbLXd4Qjn4QDNZ3G44-117">
          <mxGeometry x="330" width="130" height="130" as="geometry" />
        </mxCell>
        <mxCell id="IlfbLXd4Qjn4QDNZ3G44-66" value="" style="edgeStyle=orthogonalEdgeStyle;rounded=0;orthogonalLoop=1;jettySize=auto;html=1;" edge="1" parent="IlfbLXd4Qjn4QDNZ3G44-117" source="IlfbLXd4Qjn4QDNZ3G44-53" target="IlfbLXd4Qjn4QDNZ3G44-65">
          <mxGeometry relative="1" as="geometry" />
        </mxCell>
        <mxCell id="IlfbLXd4Qjn4QDNZ3G44-53" value="Image" style="rounded=0;whiteSpace=wrap;html=1;" vertex="1" parent="IlfbLXd4Qjn4QDNZ3G44-117">
          <mxGeometry y="210" width="120" height="60" as="geometry" />
        </mxCell>
        <mxCell id="IlfbLXd4Qjn4QDNZ3G44-72" value="" style="edgeStyle=orthogonalEdgeStyle;rounded=0;orthogonalLoop=1;jettySize=auto;html=1;" edge="1" parent="IlfbLXd4Qjn4QDNZ3G44-117" source="IlfbLXd4Qjn4QDNZ3G44-54" target="IlfbLXd4Qjn4QDNZ3G44-71">
          <mxGeometry relative="1" as="geometry" />
        </mxCell>
        <mxCell id="IlfbLXd4Qjn4QDNZ3G44-54" value="Video" style="rounded=0;whiteSpace=wrap;html=1;" vertex="1" parent="IlfbLXd4Qjn4QDNZ3G44-117">
          <mxGeometry x="170" y="210" width="120" height="60" as="geometry" />
        </mxCell>
        <mxCell id="IlfbLXd4Qjn4QDNZ3G44-77" value="" style="edgeStyle=orthogonalEdgeStyle;rounded=0;orthogonalLoop=1;jettySize=auto;html=1;entryX=0.25;entryY=0;entryDx=0;entryDy=0;" edge="1" parent="IlfbLXd4Qjn4QDNZ3G44-117" source="IlfbLXd4Qjn4QDNZ3G44-55" target="IlfbLXd4Qjn4QDNZ3G44-67">
          <mxGeometry relative="1" as="geometry" />
        </mxCell>
        <mxCell id="IlfbLXd4Qjn4QDNZ3G44-55" value="Text" style="rounded=0;whiteSpace=wrap;html=1;" vertex="1" parent="IlfbLXd4Qjn4QDNZ3G44-117">
          <mxGeometry x="335" y="210" width="120" height="60" as="geometry" />
        </mxCell>
        <mxCell id="IlfbLXd4Qjn4QDNZ3G44-76" value="" style="edgeStyle=orthogonalEdgeStyle;rounded=0;orthogonalLoop=1;jettySize=auto;html=1;entryX=0.75;entryY=0;entryDx=0;entryDy=0;" edge="1" parent="IlfbLXd4Qjn4QDNZ3G44-117" source="IlfbLXd4Qjn4QDNZ3G44-56" target="IlfbLXd4Qjn4QDNZ3G44-67">
          <mxGeometry relative="1" as="geometry" />
        </mxCell>
        <mxCell id="IlfbLXd4Qjn4QDNZ3G44-56" value="Comments" style="rounded=0;whiteSpace=wrap;html=1;" vertex="1" parent="IlfbLXd4Qjn4QDNZ3G44-117">
          <mxGeometry x="500" y="210" width="120" height="60" as="geometry" />
        </mxCell>
        <mxCell id="IlfbLXd4Qjn4QDNZ3G44-84" value="" style="edgeStyle=orthogonalEdgeStyle;rounded=0;orthogonalLoop=1;jettySize=auto;html=1;" edge="1" parent="IlfbLXd4Qjn4QDNZ3G44-117" source="IlfbLXd4Qjn4QDNZ3G44-57" target="IlfbLXd4Qjn4QDNZ3G44-83">
          <mxGeometry relative="1" as="geometry" />
        </mxCell>
        <mxCell id="IlfbLXd4Qjn4QDNZ3G44-57" value="Author" style="rounded=0;whiteSpace=wrap;html=1;" vertex="1" parent="IlfbLXd4Qjn4QDNZ3G44-117">
          <mxGeometry x="670" y="210" width="120" height="60" as="geometry" />
        </mxCell>
        <mxCell id="IlfbLXd4Qjn4QDNZ3G44-59" value="" style="endArrow=classic;html=1;rounded=0;exitX=0.75;exitY=1;exitDx=0;exitDy=0;entryX=0.5;entryY=0;entryDx=0;entryDy=0;" edge="1" parent="IlfbLXd4Qjn4QDNZ3G44-117" source="IlfbLXd4Qjn4QDNZ3G44-52" target="IlfbLXd4Qjn4QDNZ3G44-56">
          <mxGeometry width="50" height="50" relative="1" as="geometry">
            <mxPoint x="470" y="240" as="sourcePoint" />
            <mxPoint x="520" y="190" as="targetPoint" />
          </mxGeometry>
        </mxCell>
        <mxCell id="IlfbLXd4Qjn4QDNZ3G44-61" value="" style="endArrow=classic;html=1;rounded=0;entryX=0.5;entryY=0;entryDx=0;entryDy=0;exitX=1;exitY=1;exitDx=0;exitDy=0;" edge="1" parent="IlfbLXd4Qjn4QDNZ3G44-117" source="IlfbLXd4Qjn4QDNZ3G44-52" target="IlfbLXd4Qjn4QDNZ3G44-57">
          <mxGeometry width="50" height="50" relative="1" as="geometry">
            <mxPoint x="470" y="240" as="sourcePoint" />
            <mxPoint x="520" y="190" as="targetPoint" />
          </mxGeometry>
        </mxCell>
        <mxCell id="IlfbLXd4Qjn4QDNZ3G44-63" value="" style="endArrow=classic;html=1;rounded=0;exitX=0.25;exitY=1;exitDx=0;exitDy=0;entryX=0.558;entryY=0;entryDx=0;entryDy=0;entryPerimeter=0;" edge="1" parent="IlfbLXd4Qjn4QDNZ3G44-117" source="IlfbLXd4Qjn4QDNZ3G44-52" target="IlfbLXd4Qjn4QDNZ3G44-54">
          <mxGeometry width="50" height="50" relative="1" as="geometry">
            <mxPoint x="470" y="240" as="sourcePoint" />
            <mxPoint x="520" y="190" as="targetPoint" />
          </mxGeometry>
        </mxCell>
        <mxCell id="IlfbLXd4Qjn4QDNZ3G44-64" value="" style="endArrow=classic;html=1;rounded=0;exitX=0;exitY=1;exitDx=0;exitDy=0;entryX=0.5;entryY=0;entryDx=0;entryDy=0;" edge="1" parent="IlfbLXd4Qjn4QDNZ3G44-117" source="IlfbLXd4Qjn4QDNZ3G44-52" target="IlfbLXd4Qjn4QDNZ3G44-53">
          <mxGeometry width="50" height="50" relative="1" as="geometry">
            <mxPoint x="470" y="240" as="sourcePoint" />
            <mxPoint x="520" y="190" as="targetPoint" />
          </mxGeometry>
        </mxCell>
        <mxCell id="IlfbLXd4Qjn4QDNZ3G44-70" value="" style="edgeStyle=orthogonalEdgeStyle;rounded=0;orthogonalLoop=1;jettySize=auto;html=1;" edge="1" parent="IlfbLXd4Qjn4QDNZ3G44-117" source="IlfbLXd4Qjn4QDNZ3G44-65" target="IlfbLXd4Qjn4QDNZ3G44-68">
          <mxGeometry relative="1" as="geometry" />
        </mxCell>
        <mxCell id="IlfbLXd4Qjn4QDNZ3G44-65" value="Pre-trained image model :&lt;div&gt;- CLIP&lt;/div&gt;&lt;div&gt;- SimCLR&lt;/div&gt;" style="rounded=0;whiteSpace=wrap;html=1;" vertex="1" parent="IlfbLXd4Qjn4QDNZ3G44-117">
          <mxGeometry y="320" width="120" height="60" as="geometry" />
        </mxCell>
        <mxCell id="IlfbLXd4Qjn4QDNZ3G44-67" value="Pre-trained text model:&amp;nbsp;&lt;div&gt;- DistilmBERT&lt;/div&gt;" style="rounded=0;whiteSpace=wrap;html=1;" vertex="1" parent="IlfbLXd4Qjn4QDNZ3G44-117">
          <mxGeometry x="375" y="320" width="195" height="60" as="geometry" />
        </mxCell>
        <mxCell id="IlfbLXd4Qjn4QDNZ3G44-68" value="Image feature vector" style="rounded=0;whiteSpace=wrap;html=1;" vertex="1" parent="IlfbLXd4Qjn4QDNZ3G44-117">
          <mxGeometry y="410" width="120" height="20" as="geometry" />
        </mxCell>
        <mxCell id="IlfbLXd4Qjn4QDNZ3G44-74" value="" style="edgeStyle=orthogonalEdgeStyle;rounded=0;orthogonalLoop=1;jettySize=auto;html=1;" edge="1" parent="IlfbLXd4Qjn4QDNZ3G44-117" source="IlfbLXd4Qjn4QDNZ3G44-71" target="IlfbLXd4Qjn4QDNZ3G44-73">
          <mxGeometry relative="1" as="geometry" />
        </mxCell>
        <mxCell id="IlfbLXd4Qjn4QDNZ3G44-71" value="Pre-trained video model:&amp;nbsp;&lt;div&gt;- VideoMoCo&lt;/div&gt;" style="rounded=0;whiteSpace=wrap;html=1;" vertex="1" parent="IlfbLXd4Qjn4QDNZ3G44-117">
          <mxGeometry x="170" y="320" width="120" height="60" as="geometry" />
        </mxCell>
        <mxCell id="IlfbLXd4Qjn4QDNZ3G44-73" value="Video feature vector" style="rounded=0;whiteSpace=wrap;html=1;" vertex="1" parent="IlfbLXd4Qjn4QDNZ3G44-117">
          <mxGeometry x="170" y="410" width="120" height="20" as="geometry" />
        </mxCell>
        <mxCell id="IlfbLXd4Qjn4QDNZ3G44-79" value="Comment feature vector" style="rounded=0;whiteSpace=wrap;html=1;" vertex="1" parent="IlfbLXd4Qjn4QDNZ3G44-117">
          <mxGeometry x="490" y="420" width="140" height="20" as="geometry" />
        </mxCell>
        <mxCell id="IlfbLXd4Qjn4QDNZ3G44-88" value="" style="edgeStyle=orthogonalEdgeStyle;rounded=0;orthogonalLoop=1;jettySize=auto;html=1;" edge="1" parent="IlfbLXd4Qjn4QDNZ3G44-117" source="IlfbLXd4Qjn4QDNZ3G44-80" target="IlfbLXd4Qjn4QDNZ3G44-87">
          <mxGeometry relative="1" as="geometry" />
        </mxCell>
        <mxCell id="IlfbLXd4Qjn4QDNZ3G44-80" value="Text feature vector" style="rounded=0;whiteSpace=wrap;html=1;" vertex="1" parent="IlfbLXd4Qjn4QDNZ3G44-117">
          <mxGeometry x="330" y="420" width="120" height="20" as="geometry" />
        </mxCell>
        <mxCell id="IlfbLXd4Qjn4QDNZ3G44-81" value="" style="endArrow=classic;html=1;rounded=0;exitX=0.25;exitY=1;exitDx=0;exitDy=0;entryX=0.5;entryY=0;entryDx=0;entryDy=0;" edge="1" parent="IlfbLXd4Qjn4QDNZ3G44-117" source="IlfbLXd4Qjn4QDNZ3G44-67" target="IlfbLXd4Qjn4QDNZ3G44-80">
          <mxGeometry width="50" height="50" relative="1" as="geometry">
            <mxPoint x="400" y="240" as="sourcePoint" />
            <mxPoint x="450" y="190" as="targetPoint" />
          </mxGeometry>
        </mxCell>
        <mxCell id="IlfbLXd4Qjn4QDNZ3G44-82" value="" style="endArrow=classic;html=1;rounded=0;entryX=0.5;entryY=0;entryDx=0;entryDy=0;exitX=0.75;exitY=1;exitDx=0;exitDy=0;" edge="1" parent="IlfbLXd4Qjn4QDNZ3G44-117" source="IlfbLXd4Qjn4QDNZ3G44-67" target="IlfbLXd4Qjn4QDNZ3G44-79">
          <mxGeometry width="50" height="50" relative="1" as="geometry">
            <mxPoint x="400" y="240" as="sourcePoint" />
            <mxPoint x="450" y="190" as="targetPoint" />
          </mxGeometry>
        </mxCell>
        <mxCell id="IlfbLXd4Qjn4QDNZ3G44-86" value="" style="edgeStyle=orthogonalEdgeStyle;rounded=0;orthogonalLoop=1;jettySize=auto;html=1;" edge="1" parent="IlfbLXd4Qjn4QDNZ3G44-117" source="IlfbLXd4Qjn4QDNZ3G44-83" target="IlfbLXd4Qjn4QDNZ3G44-85">
          <mxGeometry relative="1" as="geometry" />
        </mxCell>
        <mxCell id="IlfbLXd4Qjn4QDNZ3G44-83" value="Extract author features" style="rounded=0;whiteSpace=wrap;html=1;" vertex="1" parent="IlfbLXd4Qjn4QDNZ3G44-117">
          <mxGeometry x="670" y="320" width="120" height="60" as="geometry" />
        </mxCell>
        <mxCell id="IlfbLXd4Qjn4QDNZ3G44-85" value="Author feature vector" style="rounded=0;whiteSpace=wrap;html=1;" vertex="1" parent="IlfbLXd4Qjn4QDNZ3G44-117">
          <mxGeometry x="670" y="420" width="120" height="20" as="geometry" />
        </mxCell>
        <mxCell id="IlfbLXd4Qjn4QDNZ3G44-94" value="" style="edgeStyle=orthogonalEdgeStyle;rounded=0;orthogonalLoop=1;jettySize=auto;html=1;" edge="1" parent="IlfbLXd4Qjn4QDNZ3G44-117" source="IlfbLXd4Qjn4QDNZ3G44-87" target="IlfbLXd4Qjn4QDNZ3G44-93">
          <mxGeometry relative="1" as="geometry" />
        </mxCell>
        <mxCell id="IlfbLXd4Qjn4QDNZ3G44-87" value="Concatenate" style="rounded=0;whiteSpace=wrap;html=1;" vertex="1" parent="IlfbLXd4Qjn4QDNZ3G44-117">
          <mxGeometry x="330" y="490" width="120" height="60" as="geometry" />
        </mxCell>
        <mxCell id="IlfbLXd4Qjn4QDNZ3G44-89" value="" style="endArrow=classic;html=1;rounded=0;exitX=0.5;exitY=1;exitDx=0;exitDy=0;entryX=0.25;entryY=0;entryDx=0;entryDy=0;" edge="1" parent="IlfbLXd4Qjn4QDNZ3G44-117" source="IlfbLXd4Qjn4QDNZ3G44-73" target="IlfbLXd4Qjn4QDNZ3G44-87">
          <mxGeometry width="50" height="50" relative="1" as="geometry">
            <mxPoint x="400" y="360" as="sourcePoint" />
            <mxPoint x="450" y="310" as="targetPoint" />
          </mxGeometry>
        </mxCell>
        <mxCell id="IlfbLXd4Qjn4QDNZ3G44-90" value="" style="endArrow=classic;html=1;rounded=0;entryX=0;entryY=0;entryDx=0;entryDy=0;exitX=0.5;exitY=1;exitDx=0;exitDy=0;" edge="1" parent="IlfbLXd4Qjn4QDNZ3G44-117" source="IlfbLXd4Qjn4QDNZ3G44-68" target="IlfbLXd4Qjn4QDNZ3G44-87">
          <mxGeometry width="50" height="50" relative="1" as="geometry">
            <mxPoint x="400" y="360" as="sourcePoint" />
            <mxPoint x="450" y="310" as="targetPoint" />
          </mxGeometry>
        </mxCell>
        <mxCell id="IlfbLXd4Qjn4QDNZ3G44-91" value="" style="endArrow=classic;html=1;rounded=0;entryX=0.75;entryY=0;entryDx=0;entryDy=0;exitX=0.5;exitY=1;exitDx=0;exitDy=0;" edge="1" parent="IlfbLXd4Qjn4QDNZ3G44-117" source="IlfbLXd4Qjn4QDNZ3G44-79" target="IlfbLXd4Qjn4QDNZ3G44-87">
          <mxGeometry width="50" height="50" relative="1" as="geometry">
            <mxPoint x="400" y="360" as="sourcePoint" />
            <mxPoint x="450" y="310" as="targetPoint" />
          </mxGeometry>
        </mxCell>
        <mxCell id="IlfbLXd4Qjn4QDNZ3G44-92" value="" style="endArrow=classic;html=1;rounded=0;exitX=0.5;exitY=1;exitDx=0;exitDy=0;entryX=1;entryY=0;entryDx=0;entryDy=0;" edge="1" parent="IlfbLXd4Qjn4QDNZ3G44-117" source="IlfbLXd4Qjn4QDNZ3G44-85" target="IlfbLXd4Qjn4QDNZ3G44-87">
          <mxGeometry width="50" height="50" relative="1" as="geometry">
            <mxPoint x="400" y="360" as="sourcePoint" />
            <mxPoint x="450" y="310" as="targetPoint" />
          </mxGeometry>
        </mxCell>
        <mxCell id="IlfbLXd4Qjn4QDNZ3G44-97" value="" style="edgeStyle=orthogonalEdgeStyle;rounded=0;orthogonalLoop=1;jettySize=auto;html=1;" edge="1" parent="IlfbLXd4Qjn4QDNZ3G44-117" source="IlfbLXd4Qjn4QDNZ3G44-93" target="IlfbLXd4Qjn4QDNZ3G44-96">
          <mxGeometry relative="1" as="geometry" />
        </mxCell>
        <mxCell id="IlfbLXd4Qjn4QDNZ3G44-93" value="Fused Features" style="rounded=0;whiteSpace=wrap;html=1;" vertex="1" parent="IlfbLXd4Qjn4QDNZ3G44-117">
          <mxGeometry x="15" y="580" width="750" height="20" as="geometry" />
        </mxCell>
        <mxCell id="IlfbLXd4Qjn4QDNZ3G44-101" value="" style="edgeStyle=orthogonalEdgeStyle;rounded=0;orthogonalLoop=1;jettySize=auto;html=1;" edge="1" parent="IlfbLXd4Qjn4QDNZ3G44-117" source="IlfbLXd4Qjn4QDNZ3G44-96" target="IlfbLXd4Qjn4QDNZ3G44-99">
          <mxGeometry relative="1" as="geometry" />
        </mxCell>
        <mxCell id="IlfbLXd4Qjn4QDNZ3G44-96" value="Multi-task classifier&amp;nbsp;&lt;div&gt;(NN)&lt;/div&gt;" style="rounded=0;whiteSpace=wrap;html=1;" vertex="1" parent="IlfbLXd4Qjn4QDNZ3G44-117">
          <mxGeometry x="330" y="630" width="120" height="60" as="geometry" />
        </mxCell>
        <mxCell id="IlfbLXd4Qjn4QDNZ3G44-98" value="Violence Probability" style="rounded=0;whiteSpace=wrap;html=1;" vertex="1" parent="IlfbLXd4Qjn4QDNZ3G44-117">
          <mxGeometry x="240" y="710" width="70" height="60" as="geometry" />
        </mxCell>
        <mxCell id="IlfbLXd4Qjn4QDNZ3G44-99" value="Nudity Probability" style="rounded=0;whiteSpace=wrap;html=1;" vertex="1" parent="IlfbLXd4Qjn4QDNZ3G44-117">
          <mxGeometry x="355" y="710" width="70" height="60" as="geometry" />
        </mxCell>
        <mxCell id="IlfbLXd4Qjn4QDNZ3G44-100" value="Hate Probability" style="rounded=0;whiteSpace=wrap;html=1;" vertex="1" parent="IlfbLXd4Qjn4QDNZ3G44-117">
          <mxGeometry x="470" y="710" width="70" height="60" as="geometry" />
        </mxCell>
        <mxCell id="IlfbLXd4Qjn4QDNZ3G44-102" value="" style="endArrow=classic;html=1;rounded=0;exitX=0.75;exitY=1;exitDx=0;exitDy=0;entryX=0.5;entryY=0;entryDx=0;entryDy=0;" edge="1" parent="IlfbLXd4Qjn4QDNZ3G44-117" source="IlfbLXd4Qjn4QDNZ3G44-96" target="IlfbLXd4Qjn4QDNZ3G44-100">
          <mxGeometry width="50" height="50" relative="1" as="geometry">
            <mxPoint x="400" y="580" as="sourcePoint" />
            <mxPoint x="450" y="530" as="targetPoint" />
          </mxGeometry>
        </mxCell>
        <mxCell id="IlfbLXd4Qjn4QDNZ3G44-103" value="" style="endArrow=classic;html=1;rounded=0;exitX=0.25;exitY=1;exitDx=0;exitDy=0;entryX=0.5;entryY=0;entryDx=0;entryDy=0;" edge="1" parent="IlfbLXd4Qjn4QDNZ3G44-117" source="IlfbLXd4Qjn4QDNZ3G44-96" target="IlfbLXd4Qjn4QDNZ3G44-98">
          <mxGeometry width="50" height="50" relative="1" as="geometry">
            <mxPoint x="400" y="580" as="sourcePoint" />
            <mxPoint x="450" y="530" as="targetPoint" />
          </mxGeometry>
        </mxCell>
        <mxCell id="IlfbLXd4Qjn4QDNZ3G44-104" value="1" style="rounded=0;whiteSpace=wrap;html=1;" vertex="1" parent="IlfbLXd4Qjn4QDNZ3G44-117">
          <mxGeometry x="260" y="870" width="30" height="30" as="geometry" />
        </mxCell>
        <mxCell id="IlfbLXd4Qjn4QDNZ3G44-114" value="" style="edgeStyle=orthogonalEdgeStyle;rounded=0;orthogonalLoop=1;jettySize=auto;html=1;" edge="1" parent="IlfbLXd4Qjn4QDNZ3G44-117" source="IlfbLXd4Qjn4QDNZ3G44-105" target="IlfbLXd4Qjn4QDNZ3G44-113">
          <mxGeometry relative="1" as="geometry" />
        </mxCell>
        <mxCell id="IlfbLXd4Qjn4QDNZ3G44-105" value="0" style="rounded=0;whiteSpace=wrap;html=1;" vertex="1" parent="IlfbLXd4Qjn4QDNZ3G44-117">
          <mxGeometry x="375" y="870" width="30" height="30" as="geometry" />
        </mxCell>
        <mxCell id="IlfbLXd4Qjn4QDNZ3G44-106" value="1" style="rounded=0;whiteSpace=wrap;html=1;" vertex="1" parent="IlfbLXd4Qjn4QDNZ3G44-117">
          <mxGeometry x="490" y="870" width="30" height="30" as="geometry" />
        </mxCell>
        <mxCell id="IlfbLXd4Qjn4QDNZ3G44-107" value="" style="endArrow=classic;html=1;rounded=0;exitX=0.5;exitY=1;exitDx=0;exitDy=0;entryX=0.5;entryY=0;entryDx=0;entryDy=0;" edge="1" parent="IlfbLXd4Qjn4QDNZ3G44-117" source="IlfbLXd4Qjn4QDNZ3G44-98" target="IlfbLXd4Qjn4QDNZ3G44-104">
          <mxGeometry width="50" height="50" relative="1" as="geometry">
            <mxPoint x="380" y="920" as="sourcePoint" />
            <mxPoint x="430" y="870" as="targetPoint" />
          </mxGeometry>
        </mxCell>
        <mxCell id="IlfbLXd4Qjn4QDNZ3G44-110" value="L1" style="edgeLabel;html=1;align=center;verticalAlign=middle;resizable=0;points=[];" vertex="1" connectable="0" parent="IlfbLXd4Qjn4QDNZ3G44-107">
          <mxGeometry x="0.1333" y="2" relative="1" as="geometry">
            <mxPoint as="offset" />
          </mxGeometry>
        </mxCell>
        <mxCell id="IlfbLXd4Qjn4QDNZ3G44-108" value="" style="endArrow=classic;html=1;rounded=0;exitX=0.5;exitY=1;exitDx=0;exitDy=0;entryX=0.5;entryY=0;entryDx=0;entryDy=0;" edge="1" parent="IlfbLXd4Qjn4QDNZ3G44-117" source="IlfbLXd4Qjn4QDNZ3G44-99" target="IlfbLXd4Qjn4QDNZ3G44-105">
          <mxGeometry width="50" height="50" relative="1" as="geometry">
            <mxPoint x="390" y="920" as="sourcePoint" />
            <mxPoint x="440" y="870" as="targetPoint" />
            <Array as="points" />
          </mxGeometry>
        </mxCell>
        <mxCell id="IlfbLXd4Qjn4QDNZ3G44-111" value="L2" style="edgeLabel;html=1;align=center;verticalAlign=middle;resizable=0;points=[];" vertex="1" connectable="0" parent="IlfbLXd4Qjn4QDNZ3G44-108">
          <mxGeometry x="0.26" y="1" relative="1" as="geometry">
            <mxPoint y="-10" as="offset" />
          </mxGeometry>
        </mxCell>
        <mxCell id="IlfbLXd4Qjn4QDNZ3G44-109" value="" style="endArrow=classic;html=1;rounded=0;exitX=0.5;exitY=1;exitDx=0;exitDy=0;entryX=0.5;entryY=0;entryDx=0;entryDy=0;" edge="1" parent="IlfbLXd4Qjn4QDNZ3G44-117" source="IlfbLXd4Qjn4QDNZ3G44-100" target="IlfbLXd4Qjn4QDNZ3G44-106">
          <mxGeometry width="50" height="50" relative="1" as="geometry">
            <mxPoint x="390" y="920" as="sourcePoint" />
            <mxPoint x="440" y="870" as="targetPoint" />
            <Array as="points" />
          </mxGeometry>
        </mxCell>
        <mxCell id="IlfbLXd4Qjn4QDNZ3G44-112" value="L3" style="edgeLabel;html=1;align=center;verticalAlign=middle;resizable=0;points=[];" vertex="1" connectable="0" parent="IlfbLXd4Qjn4QDNZ3G44-109">
          <mxGeometry x="0.1" relative="1" as="geometry">
            <mxPoint as="offset" />
          </mxGeometry>
        </mxCell>
        <mxCell id="IlfbLXd4Qjn4QDNZ3G44-113" value="Loss = L1 + L2 + L3" style="rounded=0;whiteSpace=wrap;html=1;" vertex="1" parent="IlfbLXd4Qjn4QDNZ3G44-117">
          <mxGeometry x="290" y="950" width="200" height="30" as="geometry" />
        </mxCell>
        <mxCell id="IlfbLXd4Qjn4QDNZ3G44-115" value="" style="endArrow=classic;html=1;rounded=0;exitX=0.5;exitY=1;exitDx=0;exitDy=0;entryX=0.25;entryY=0;entryDx=0;entryDy=0;" edge="1" parent="IlfbLXd4Qjn4QDNZ3G44-117" source="IlfbLXd4Qjn4QDNZ3G44-104" target="IlfbLXd4Qjn4QDNZ3G44-113">
          <mxGeometry width="50" height="50" relative="1" as="geometry">
            <mxPoint x="350" y="900" as="sourcePoint" />
            <mxPoint x="400" y="850" as="targetPoint" />
          </mxGeometry>
        </mxCell>
        <mxCell id="IlfbLXd4Qjn4QDNZ3G44-116" value="" style="endArrow=classic;html=1;rounded=0;exitX=0.5;exitY=1;exitDx=0;exitDy=0;entryX=0.75;entryY=0;entryDx=0;entryDy=0;" edge="1" parent="IlfbLXd4Qjn4QDNZ3G44-117" source="IlfbLXd4Qjn4QDNZ3G44-106" target="IlfbLXd4Qjn4QDNZ3G44-113">
          <mxGeometry width="50" height="50" relative="1" as="geometry">
            <mxPoint x="350" y="900" as="sourcePoint" />
            <mxPoint x="400" y="850" as="targetPoint" />
          </mxGeometry>
        </mxCell>
        <mxCell id="IlfbLXd4Qjn4QDNZ3G44-118" value="&lt;font style=&quot;font-size: 24px;&quot;&gt;5. Model Development&lt;/font&gt;&lt;div&gt;&lt;font style=&quot;font-size: 12px;&quot;&gt;Multi- task classifier:&amp;nbsp;&lt;/font&gt;&lt;/div&gt;&lt;div&gt;&lt;font style=&quot;font-size: 12px;&quot;&gt;Use NN to implement it.&amp;nbsp;&lt;/font&gt;&lt;/div&gt;&lt;div&gt;&lt;font style=&quot;font-size: 12px;&quot;&gt;What is the architecture?&amp;nbsp;&lt;/font&gt;&lt;/div&gt;&lt;div&gt;&lt;font style=&quot;font-size: 12px;&quot;&gt;Optimal hyperparameters (Hidden layers | activation functions | learning rate):&amp;nbsp;&lt;/font&gt;&lt;/div&gt;&lt;div&gt;&lt;font style=&quot;font-size: 12px;&quot;&gt;&lt;span style=&quot;white-space: pre;&quot;&gt;&#x9;- Hyperparameter tuning: grid search or random search using the evaluation data&lt;/span&gt;&lt;br&gt;&lt;/font&gt;&lt;/div&gt;&lt;div&gt;&lt;font style=&quot;font-size: 12px;&quot;&gt;&lt;span style=&quot;white-space: pre;&quot;&gt;&lt;br&gt;&lt;/span&gt;&lt;/font&gt;&lt;/div&gt;&lt;div&gt;&lt;font style=&quot;font-size: 12px;&quot;&gt;&lt;span style=&quot;white-space: pre;&quot;&gt;&lt;b&gt;Training: &lt;/b&gt;&lt;/span&gt;&lt;/font&gt;&lt;/div&gt;&lt;div&gt;&lt;font style=&quot;font-size: 12px;&quot;&gt;&lt;span style=&quot;white-space: pre;&quot;&gt;&lt;span style=&quot;white-space: pre;&quot;&gt;&#x9;&lt;/span&gt;- Dataset construction:&lt;/span&gt;&lt;/font&gt;&lt;/div&gt;&lt;div&gt;&lt;font style=&quot;font-size: 12px;&quot;&gt;&lt;span style=&quot;white-space: pre;&quot;&gt;&lt;span style=&quot;white-space: pre;&quot;&gt;&#x9;&lt;/span&gt;&lt;span style=&quot;white-space: pre;&quot;&gt;&#x9;* model input (features) and output(labels)&lt;/span&gt;&lt;br&gt;&lt;/span&gt;&lt;/font&gt;&lt;/div&gt;&lt;div&gt;&lt;font style=&quot;font-size: 12px;&quot;&gt;&lt;span style=&quot;white-space: pre;&quot;&gt;&lt;span style=&quot;white-space: pre;&quot;&gt;&lt;span style=&quot;white-space: pre;&quot;&gt;&#x9;&lt;/span&gt;&lt;span style=&quot;white-space: pre;&quot;&gt;&#x9;* Process posts offline in batches and compute the fused features&lt;/span&gt;&lt;br&gt;&lt;/span&gt;&lt;/span&gt;&lt;/font&gt;&lt;/div&gt;&lt;div&gt;&lt;font style=&quot;font-size: 12px;&quot;&gt;&lt;span style=&quot;white-space: pre;&quot;&gt;&lt;span style=&quot;white-space: pre;&quot;&gt;&lt;span style=&quot;white-space: pre;&quot;&gt;&lt;span style=&quot;white-space: pre;&quot;&gt;&#x9;&lt;/span&gt;&lt;span style=&quot;white-space: pre;&quot;&gt;&#x9;* Labels: &lt;/span&gt;&lt;br&gt;&lt;/span&gt;&lt;/span&gt;&lt;/span&gt;&lt;/font&gt;&lt;/div&gt;&lt;div&gt;&lt;font style=&quot;font-size: 12px;&quot;&gt;&lt;span style=&quot;white-space: pre;&quot;&gt;&lt;span style=&quot;white-space: pre;&quot;&gt;&lt;span style=&quot;white-space: pre;&quot;&gt;&lt;span style=&quot;white-space: pre;&quot;&gt;&lt;span style=&quot;white-space: pre;&quot;&gt;&#x9;&lt;/span&gt;&lt;span style=&quot;white-space: pre;&quot;&gt;&#x9;&lt;/span&gt;&lt;span style=&quot;white-space: pre;&quot;&gt;&#x9;- natural labeling: fast but noisy (crowd source, user reports) --&amp;gt; for training dataset (&lt;font color=&quot;#ff3333&quot;&gt;Bias&lt;/font&gt;)&lt;/span&gt;&lt;br&gt;&lt;/span&gt;&lt;/span&gt;&lt;/span&gt;&lt;/span&gt;&lt;/font&gt;&lt;/div&gt;&lt;div&gt;&lt;font style=&quot;font-size: 12px;&quot;&gt;&lt;span style=&quot;white-space: pre;&quot;&gt;&lt;span style=&quot;white-space: pre;&quot;&gt;&lt;span style=&quot;white-space: pre;&quot;&gt;&lt;span style=&quot;white-space: pre;&quot;&gt;&lt;span style=&quot;white-space: pre;&quot;&gt;&lt;span style=&quot;white-space: pre;&quot;&gt;&#x9;&lt;/span&gt;&lt;span style=&quot;white-space: pre;&quot;&gt;&#x9;&lt;/span&gt;&lt;span style=&quot;white-space: pre;&quot;&gt;&#x9;- hand labeling: expensive but accurate (human annotator) --&amp;gt; for evaluation dataset (&lt;font color=&quot;#ff0000&quot;&gt;Bias&lt;/font&gt;) &lt;/span&gt;&lt;/span&gt;&lt;/span&gt;&lt;/span&gt;&lt;/span&gt;&lt;/span&gt;&lt;/font&gt;&lt;/div&gt;&lt;div&gt;&lt;font style=&quot;font-size: 12px;&quot;&gt;&lt;span style=&quot;white-space: pre;&quot;&gt;&lt;span style=&quot;white-space: pre;&quot;&gt;&lt;span style=&quot;white-space: pre;&quot;&gt;&lt;span style=&quot;white-space: pre;&quot;&gt;&lt;span style=&quot;white-space: pre;&quot;&gt;&lt;span style=&quot;white-space: pre;&quot;&gt;&lt;span style=&quot;white-space: pre;&quot;&gt;&#x9;- Loss function: &lt;/span&gt;&lt;br&gt;&lt;/span&gt;&lt;/span&gt;&lt;/span&gt;&lt;/span&gt;&lt;/span&gt;&lt;/span&gt;&lt;/font&gt;&lt;/div&gt;&lt;div&gt;&lt;font style=&quot;font-size: 12px;&quot;&gt;&lt;span style=&quot;white-space: pre;&quot;&gt;&lt;span style=&quot;white-space: pre;&quot;&gt;&lt;span style=&quot;white-space: pre;&quot;&gt;&lt;span style=&quot;white-space: pre;&quot;&gt;&lt;span style=&quot;white-space: pre;&quot;&gt;&lt;span style=&quot;white-space: pre;&quot;&gt;&lt;span style=&quot;white-space: pre;&quot;&gt;&lt;span style=&quot;white-space: pre;&quot;&gt;&#x9;&lt;/span&gt;&lt;span style=&quot;white-space: pre;&quot;&gt;&#x9;each task is a binary classification --&amp;gt; cross entropy loss function &lt;/span&gt;&lt;br&gt;&lt;/span&gt;&lt;/span&gt;&lt;/span&gt;&lt;/span&gt;&lt;/span&gt;&lt;/span&gt;&lt;/span&gt;&lt;/font&gt;&lt;/div&gt;&lt;div&gt;&lt;font style=&quot;font-size: 12px;&quot;&gt;&lt;span style=&quot;white-space: pre;&quot;&gt;&lt;span style=&quot;white-space: pre;&quot;&gt;&lt;span style=&quot;white-space: pre;&quot;&gt;&lt;span style=&quot;white-space: pre;&quot;&gt;&lt;span style=&quot;white-space: pre;&quot;&gt;&lt;span style=&quot;white-space: pre;&quot;&gt;&lt;span style=&quot;white-space: pre;&quot;&gt;&lt;span style=&quot;white-space: pre;&quot;&gt;&lt;span style=&quot;white-space: pre;&quot;&gt;&#x9;- Challenge: &lt;/span&gt;&lt;br&gt;&lt;/span&gt;&lt;/span&gt;&lt;/span&gt;&lt;/span&gt;&lt;/span&gt;&lt;/span&gt;&lt;/span&gt;&lt;/span&gt;&lt;/font&gt;&lt;/div&gt;&lt;div&gt;&lt;font style=&quot;font-size: 12px;&quot;&gt;&lt;span style=&quot;white-space: pre;&quot;&gt;&lt;span style=&quot;white-space: pre;&quot;&gt;&lt;span style=&quot;white-space: pre;&quot;&gt;&lt;span style=&quot;white-space: pre;&quot;&gt;&lt;span style=&quot;white-space: pre;&quot;&gt;&lt;span style=&quot;white-space: pre;&quot;&gt;&lt;span style=&quot;white-space: pre;&quot;&gt;&lt;span style=&quot;white-space: pre;&quot;&gt;&lt;span style=&quot;white-space: pre;&quot;&gt;&lt;span style=&quot;white-space: pre;&quot;&gt;&#x9;&lt;/span&gt;&lt;span style=&quot;white-space: pre;&quot;&gt;&#x9;- overfitting: happens if learning speed across one modality is faster than others --&amp;gt; Gradient blending | Focal Loss&lt;/span&gt;&lt;/span&gt;&lt;/span&gt;&lt;/span&gt;&lt;/span&gt;&lt;/span&gt;&lt;/span&gt;&lt;/span&gt;&lt;/span&gt;&lt;/span&gt;&lt;/font&gt;&lt;br&gt;&lt;/div&gt;&lt;div&gt;&lt;font style=&quot;font-size: 12px;&quot;&gt;&lt;span style=&quot;white-space: pre;&quot;&gt;&lt;br&gt;&lt;/span&gt;&lt;/font&gt;&lt;/div&gt;&lt;div&gt;&lt;font style=&quot;font-size: 12px;&quot;&gt;&lt;span style=&quot;white-space: pre;&quot;&gt;Evaluation: &lt;/span&gt;&lt;/font&gt;&lt;/div&gt;&lt;div&gt;&lt;font style=&quot;font-size: 12px;&quot;&gt;&lt;span style=&quot;white-space: pre;&quot;&gt;&lt;span style=&quot;white-space: pre;&quot;&gt;&#x9;- Offline metrics: since its classification, tradeoff between precision and recall&lt;/span&gt;&lt;br&gt;&lt;/span&gt;&lt;/font&gt;&lt;/div&gt;&lt;div&gt;&lt;font style=&quot;font-size: 12px;&quot;&gt;&lt;span style=&quot;white-space: pre;&quot;&gt;&lt;span style=&quot;white-space: pre;&quot;&gt;&lt;span style=&quot;white-space: pre;&quot;&gt;&#x9;&lt;/span&gt;&lt;span style=&quot;white-space: pre;&quot;&gt;&#x9;* PR AUC curve (Precision/Recall): higher PR-AUC --&amp;gt; more accurate model&lt;/span&gt;&lt;br&gt;&lt;/span&gt;&lt;/span&gt;&lt;/font&gt;&lt;/div&gt;&lt;div&gt;&lt;font style=&quot;font-size: 12px;&quot;&gt;&lt;span style=&quot;white-space: pre;&quot;&gt;&lt;span style=&quot;white-space: pre;&quot;&gt;&lt;span style=&quot;white-space: pre;&quot;&gt;&lt;span style=&quot;white-space: pre;&quot;&gt;&#x9;&lt;/span&gt;&lt;span style=&quot;white-space: pre;&quot;&gt;&#x9;* RoC AUC curve (True positive (recall)/False positive)&lt;/span&gt;&lt;br&gt;&lt;/span&gt;&lt;/span&gt;&lt;/span&gt;&lt;/font&gt;&lt;/div&gt;&lt;div&gt;&lt;font style=&quot;font-size: 12px;&quot;&gt;&lt;span style=&quot;white-space: pre;&quot;&gt;&lt;span style=&quot;white-space: pre;&quot;&gt;&lt;span style=&quot;white-space: pre;&quot;&gt;&lt;span style=&quot;white-space: pre;&quot;&gt;&lt;span style=&quot;white-space: pre;&quot;&gt;&#x9;- Online Metrics:&lt;/span&gt;&lt;br&gt;&lt;/span&gt;&lt;/span&gt;&lt;/span&gt;&lt;/span&gt;&lt;/font&gt;&lt;/div&gt;&lt;div&gt;&lt;font&gt;&lt;span style=&quot;font-size: 12px; white-space: pre;&quot;&gt;&#x9;&lt;/span&gt;&lt;span style=&quot;white-space: pre;&quot;&gt;&#x9;* Prevalence: ratio of harmful content that we didn&#39;t prevent, but it treats harmful posts&lt;/span&gt;&amp;nbsp;equally (one harmful post with 100K views are more harmful than two posts with 10 view each)&amp;nbsp;&lt;/font&gt;&lt;span style=&quot;white-space: pre;&quot;&gt;&#x9;&lt;/span&gt;&lt;/div&gt;&lt;div&gt;&lt;span style=&quot;white-space: pre;&quot;&gt;&lt;span style=&quot;white-space: pre;&quot;&gt;&#x9;&lt;/span&gt;&lt;span style=&quot;white-space: pre;&quot;&gt;&#x9;&lt;span style=&quot;white-space: pre;&quot;&gt;&#x9;&lt;/span&gt;prevalence = # of harmful posts we didn&#39;t prevent / total # of posts on platform&lt;/span&gt;&#x9;&lt;/span&gt;&lt;/div&gt;&lt;div&gt;&lt;span style=&quot;white-space: pre;&quot;&gt;&lt;span style=&quot;white-space: pre;&quot;&gt;&#x9;&lt;/span&gt;&lt;span style=&quot;white-space: pre;&quot;&gt;&#x9;&lt;/span&gt;* &lt;font color=&quot;#ff00ff&quot;&gt;Harmful&lt;/font&gt;&lt;/span&gt;&lt;font color=&quot;#ff00ff&quot;&gt; &lt;/font&gt;&lt;span style=&quot;white-space: pre;&quot;&gt;&lt;font color=&quot;#ff00ff&quot;&gt;impression&lt;/font&gt;: Number of people affected by the posts we didn&#39;t catch&lt;/span&gt;&lt;/div&gt;&lt;div&gt;&lt;span style=&quot;white-space: pre;&quot;&gt;&lt;span style=&quot;white-space: pre;&quot;&gt;&#x9;&lt;/span&gt;&lt;span style=&quot;white-space: pre;&quot;&gt;&#x9;* Valid appeals: percentage of posts that were marked harmful, but appealed and reversed&lt;/span&gt;&lt;br&gt;&lt;/span&gt;&lt;/div&gt;&lt;div&gt;&lt;span style=&quot;white-space: pre;&quot;&gt;&lt;span style=&quot;white-space: pre;&quot;&gt;&lt;span style=&quot;white-space: pre;&quot;&gt;&#x9;&lt;/span&gt;&lt;span style=&quot;white-space: pre;&quot;&gt;&#x9;&lt;/span&gt;&lt;span style=&quot;white-space: pre;&quot;&gt;&#x9;valid appeals = # of reversed appeals / # of harmful posts detected by the system&lt;/span&gt;&lt;br&gt;&lt;/span&gt;&lt;/span&gt;&lt;/div&gt;&lt;div&gt;&lt;span style=&quot;white-space: pre;&quot;&gt;&#x9;&lt;/span&gt;&lt;span style=&quot;white-space: pre;&quot;&gt;&#x9;* Proactive rate: percentage of harmful posts found and deleted before user reports it&lt;/span&gt;&lt;/div&gt;&lt;div&gt;&lt;span style=&quot;white-space: pre;&quot;&gt;&lt;span style=&quot;white-space: pre;&quot;&gt;&#x9;&lt;/span&gt;&lt;span style=&quot;white-space: pre;&quot;&gt;&#x9;&lt;/span&gt;&lt;span style=&quot;white-space: pre;&quot;&gt;&#x9;Proactive rate = # of harmful posts detected by the system / # of harmful posts detected by the system + reported by the user&lt;/span&gt;&lt;br&gt;&lt;/span&gt;&lt;/div&gt;&lt;div&gt;&lt;span style=&quot;white-space: pre;&quot;&gt;&lt;span style=&quot;white-space: pre;&quot;&gt;&#x9;&lt;/span&gt;&lt;span style=&quot;white-space: pre;&quot;&gt;&#x9;* User report per harmful class: &lt;/span&gt;&lt;br&gt;&lt;/span&gt;&lt;/div&gt;&lt;div&gt;&lt;span style=&quot;white-space: pre;&quot;&gt;&lt;span style=&quot;white-space: pre;&quot;&gt;&lt;br&gt;&lt;/span&gt;&lt;/span&gt;&lt;/div&gt;&lt;div&gt;&lt;span style=&quot;white-space: pre;&quot;&gt;&lt;b&gt;&lt;span style=&quot;white-space: pre;&quot;&gt;Serving (&lt;/span&gt;Inference): &lt;/b&gt;&lt;/span&gt;&lt;/div&gt;&lt;div&gt;&lt;span style=&quot;white-space: pre;&quot;&gt;&lt;br&gt;&lt;/span&gt;&lt;/div&gt;&lt;div&gt;&lt;span style=&quot;white-space: pre;&quot;&gt;&lt;span style=&quot;white-space: pre;&quot;&gt;&lt;span style=&quot;white-space: pre;&quot;&gt;&#x9;&lt;/span&gt;&lt;span style=&quot;white-space: pre;&quot;&gt;&#x9;&lt;/span&gt;&lt;span style=&quot;white-space: pre;&quot;&gt;&#x9;&lt;/span&gt;&lt;br&gt;&lt;/span&gt;&lt;/span&gt;&lt;/div&gt;" style="text;html=1;align=left;verticalAlign=top;whiteSpace=wrap;rounded=0;" vertex="1" parent="1">
          <mxGeometry x="40" y="4650" width="760" height="470" as="geometry" />
        </mxCell>
        <mxCell id="IlfbLXd4Qjn4QDNZ3G44-139" value="" style="group" vertex="1" connectable="0" parent="1">
          <mxGeometry x="40" y="5210" width="685" height="380" as="geometry" />
        </mxCell>
        <mxCell id="IlfbLXd4Qjn4QDNZ3G44-121" value="" style="edgeStyle=orthogonalEdgeStyle;rounded=0;orthogonalLoop=1;jettySize=auto;html=1;" edge="1" parent="IlfbLXd4Qjn4QDNZ3G44-139" source="IlfbLXd4Qjn4QDNZ3G44-119" target="IlfbLXd4Qjn4QDNZ3G44-120">
          <mxGeometry relative="1" as="geometry" />
        </mxCell>
        <mxCell id="IlfbLXd4Qjn4QDNZ3G44-119" value="User:&amp;nbsp;&lt;div&gt;- Upload post (post info)&lt;/div&gt;&lt;div&gt;- Comment (post id, text)&lt;/div&gt;" style="rounded=0;whiteSpace=wrap;html=1;" vertex="1" parent="IlfbLXd4Qjn4QDNZ3G44-139">
          <mxGeometry x="40" width="160" height="60" as="geometry" />
        </mxCell>
        <mxCell id="IlfbLXd4Qjn4QDNZ3G44-129" value="" style="edgeStyle=orthogonalEdgeStyle;rounded=0;orthogonalLoop=1;jettySize=auto;html=1;" edge="1" parent="IlfbLXd4Qjn4QDNZ3G44-139" source="IlfbLXd4Qjn4QDNZ3G44-120" target="IlfbLXd4Qjn4QDNZ3G44-122">
          <mxGeometry relative="1" as="geometry" />
        </mxCell>
        <mxCell id="IlfbLXd4Qjn4QDNZ3G44-120" value="platform" style="rounded=0;whiteSpace=wrap;html=1;" vertex="1" parent="IlfbLXd4Qjn4QDNZ3G44-139">
          <mxGeometry x="60" y="100" width="120" height="60" as="geometry" />
        </mxCell>
        <mxCell id="IlfbLXd4Qjn4QDNZ3G44-132" style="edgeStyle=orthogonalEdgeStyle;rounded=0;orthogonalLoop=1;jettySize=auto;html=1;exitX=1;exitY=0.5;exitDx=0;exitDy=0;entryX=0;entryY=0.5;entryDx=0;entryDy=0;" edge="1" parent="IlfbLXd4Qjn4QDNZ3G44-139" source="IlfbLXd4Qjn4QDNZ3G44-122" target="IlfbLXd4Qjn4QDNZ3G44-123">
          <mxGeometry relative="1" as="geometry">
            <mxPoint x="270" y="230" as="targetPoint" />
            <Array as="points">
              <mxPoint x="280" y="230" />
              <mxPoint x="280" y="180" />
            </Array>
          </mxGeometry>
        </mxCell>
        <mxCell id="IlfbLXd4Qjn4QDNZ3G44-135" value="Harm detected&amp;nbsp;&lt;div&gt;with low confidence&lt;/div&gt;" style="edgeLabel;html=1;align=center;verticalAlign=middle;resizable=0;points=[];" vertex="1" connectable="0" parent="IlfbLXd4Qjn4QDNZ3G44-132">
          <mxGeometry x="0.3097" y="-2" relative="1" as="geometry">
            <mxPoint as="offset" />
          </mxGeometry>
        </mxCell>
        <mxCell id="IlfbLXd4Qjn4QDNZ3G44-122" value="Harmful content detection service" style="rounded=0;whiteSpace=wrap;html=1;" vertex="1" parent="IlfbLXd4Qjn4QDNZ3G44-139">
          <mxGeometry x="60" y="200" width="120" height="60" as="geometry" />
        </mxCell>
        <mxCell id="IlfbLXd4Qjn4QDNZ3G44-138" value="" style="edgeStyle=orthogonalEdgeStyle;rounded=0;orthogonalLoop=1;jettySize=auto;html=1;" edge="1" parent="IlfbLXd4Qjn4QDNZ3G44-139" source="IlfbLXd4Qjn4QDNZ3G44-123" target="IlfbLXd4Qjn4QDNZ3G44-137">
          <mxGeometry relative="1" as="geometry" />
        </mxCell>
        <mxCell id="IlfbLXd4Qjn4QDNZ3G44-123" value="Demoting service" style="rounded=0;whiteSpace=wrap;html=1;" vertex="1" parent="IlfbLXd4Qjn4QDNZ3G44-139">
          <mxGeometry x="440" y="150" width="120" height="60" as="geometry" />
        </mxCell>
        <mxCell id="IlfbLXd4Qjn4QDNZ3G44-124" value="Violation enforcement service" style="rounded=0;whiteSpace=wrap;html=1;" vertex="1" parent="IlfbLXd4Qjn4QDNZ3G44-139">
          <mxGeometry x="440" y="250" width="120" height="60" as="geometry" />
        </mxCell>
        <mxCell id="IlfbLXd4Qjn4QDNZ3G44-125" value="Feature preparation" style="rounded=0;whiteSpace=wrap;html=1;" vertex="1" parent="IlfbLXd4Qjn4QDNZ3G44-139">
          <mxGeometry y="310" width="120" height="60" as="geometry" />
        </mxCell>
        <mxCell id="IlfbLXd4Qjn4QDNZ3G44-126" value="trained ML model" style="ellipse;shape=cloud;whiteSpace=wrap;html=1;" vertex="1" parent="IlfbLXd4Qjn4QDNZ3G44-139">
          <mxGeometry x="160" y="300" width="120" height="80" as="geometry" />
        </mxCell>
        <mxCell id="IlfbLXd4Qjn4QDNZ3G44-127" value="" style="endArrow=classic;startArrow=classic;html=1;rounded=0;exitX=0.5;exitY=0;exitDx=0;exitDy=0;entryX=0.25;entryY=1;entryDx=0;entryDy=0;" edge="1" parent="IlfbLXd4Qjn4QDNZ3G44-139" source="IlfbLXd4Qjn4QDNZ3G44-125" target="IlfbLXd4Qjn4QDNZ3G44-122">
          <mxGeometry width="50" height="50" relative="1" as="geometry">
            <mxPoint x="410" y="210" as="sourcePoint" />
            <mxPoint x="460" y="160" as="targetPoint" />
          </mxGeometry>
        </mxCell>
        <mxCell id="IlfbLXd4Qjn4QDNZ3G44-128" value="" style="endArrow=classic;startArrow=classic;html=1;rounded=0;exitX=0.4;exitY=0.1;exitDx=0;exitDy=0;exitPerimeter=0;entryX=0.75;entryY=1;entryDx=0;entryDy=0;" edge="1" parent="IlfbLXd4Qjn4QDNZ3G44-139" source="IlfbLXd4Qjn4QDNZ3G44-126" target="IlfbLXd4Qjn4QDNZ3G44-122">
          <mxGeometry width="50" height="50" relative="1" as="geometry">
            <mxPoint x="410" y="210" as="sourcePoint" />
            <mxPoint x="460" y="160" as="targetPoint" />
          </mxGeometry>
        </mxCell>
        <mxCell id="IlfbLXd4Qjn4QDNZ3G44-134" value="" style="endArrow=classic;html=1;rounded=0;entryX=-0.008;entryY=0.4;entryDx=0;entryDy=0;entryPerimeter=0;" edge="1" parent="IlfbLXd4Qjn4QDNZ3G44-139" target="IlfbLXd4Qjn4QDNZ3G44-124">
          <mxGeometry width="50" height="50" relative="1" as="geometry">
            <mxPoint x="280" y="230" as="sourcePoint" />
            <mxPoint x="460" y="160" as="targetPoint" />
            <Array as="points">
              <mxPoint x="280" y="274" />
            </Array>
          </mxGeometry>
        </mxCell>
        <mxCell id="IlfbLXd4Qjn4QDNZ3G44-136" value="Harm detected&amp;nbsp;&lt;div&gt;with high confidence&lt;/div&gt;" style="edgeLabel;html=1;align=center;verticalAlign=middle;resizable=0;points=[];" vertex="1" connectable="0" parent="IlfbLXd4Qjn4QDNZ3G44-134">
          <mxGeometry x="0.0146" y="-2" relative="1" as="geometry">
            <mxPoint as="offset" />
          </mxGeometry>
        </mxCell>
        <mxCell id="IlfbLXd4Qjn4QDNZ3G44-137" value="Manual review" style="shape=cylinder3;whiteSpace=wrap;html=1;boundedLbl=1;backgroundOutline=1;size=15;" vertex="1" parent="IlfbLXd4Qjn4QDNZ3G44-139">
          <mxGeometry x="625" y="140" width="60" height="80" as="geometry" />
        </mxCell>
      </root>
    </mxGraphModel>
  </diagram>
</mxfile>
